SplineFontDB: 3.2
FontName: SingScript.sg_somescript
FullName: SingScript.sg "somescript" module
FamilyName: SingScript.sg
Weight: Regular
Copyright: Copyright (c) 2025, 05524F.sg (Singapore)
Version: v2
ItalicAngle: 0
UnderlinePosition: -100
UnderlineWidth: 67
Ascent: 600
Descent: 300
InvalidEm: 0
sfntRevision: 0x00010000
LayerCount: 2
Layer: 0 0 "Back" 1
Layer: 1 0 "Fore" 0
XUID: [1021 768 647112374 32286]
StyleMap: 0x0040
FSType: 0
OS2Version: 4
OS2_WeightWidthSlopeOnly: 0
OS2_UseTypoMetrics: 1
CreationTime: 1740441635
ModificationTime: 1753646631
PfmFamily: 65
TTFWeight: 400
TTFWidth: 5
LineGap: 81
VLineGap: 0
Panose: 3 0 5 3 0 0 0 0 0 0
OS2TypoAscent: 600
OS2TypoAOffset: 0
OS2TypoDescent: -300
OS2TypoDOffset: 0
OS2TypoLinegap: 81
OS2WinAscent: 590
OS2WinAOffset: 0
OS2WinDescent: 233
OS2WinDOffset: 0
HheadAscent: 590
HheadAOffset: 0
HheadDescent: -233
HheadDOffset: 0
OS2SubXSize: 585
OS2SubYSize: 630
OS2SubXOff: 0
OS2SubYOff: 126
OS2SupXSize: 585
OS2SupYSize: 630
OS2SupXOff: 0
OS2SupYOff: 432
OS2StrikeYSize: 44
OS2StrikeYPos: 232
OS2CapHeight: 467
OS2XHeight: 300
OS2Vendor: '5524'
OS2CodePages: 00000001.00000000
OS2UnicodeRanges: 80000003.10000000.00000000.00000000
MarkAttachClasses: 1
DEI: 91125
LangName: 1033 "" "" "" "" "" "Version v2"
Encoding: Custom
UnicodeInterp: none
NameList: AGL For New Fonts
DisplaySize: -48
AntiAlias: 1
FitToEm: 0
WidthSeparation: 50
WinInfo: 0 27 4
BeginPrivate: 6
BlueValues 21 [0 0 300 300 467 467]
OtherBlues 11 [-233 -233]
StdHW 4 [67]
StdVW 4 [67]
StemSnapH 33 [52 59 63 67 73 78 86 93 159 167]
StemSnapV 4 [67]
EndPrivate
Grid
0 -200 m 24
 351 -200 549 -200 900 -200 c 1048
0 -233 m 24
 351 -233 549 -233 900 -233 c 1048
250 211 m 24
 289 211 311 211 350 211 c 1048
250 100 m 24
 289 100 311 100 350 100 c 1048
250 -100 m 24
 289 -100 311 -100 350 -100 c 1048
250 -255 m 24
 289 -255 311 -255 350 -255 c 1048
100 511 m 24
 139 511 161 511 200 511 c 1048
100 400 m 24
 139 400 161 400 200 400 c 1048
100 200 m 24

StartChar: uni3200
Encoding: 0 12800 0
Width: 244
Flags: W
HStem: 303 44<111.555 148 149 157>
VStem: 25 43<200.156 226.001> 174 45<200.282 298.203>
LayerCount: 2
Fore
SplineSet
148 302 m 1
 139 302 l 2
 111 301 107 301 96 298 c 1
 91 280 86 265 68 215 c 0
 65 206 56 200 47 200 c 0
 35 200 25 211 25 223 c 0
 25 227 26 226 26 226 c 0
 26 226 27 226 27 230 c 0
 39 261 48 292 57 322 c 0
 74 379 90 435 125 499 c 0
 130 507 137 511 145 511 c 0
 154 511 162 506 165 497 c 0
 191 424 197 390 217 233 c 0
 217 231 218 230 218 228 c 0
 218 226 218 224 219 223 c 0
 219 211 208 200 196 200 c 0
 185 200 175 208 174 219 c 0
 174 224 174 228 172 239 c 0
 170 250 167 269 163 303 c 1
 149 303 l 1
 148 302 l 1
157 347 m 1
 154 374 150 397 141 429 c 1
 130 404 122 382 111 345 c 1
 123 347 125 347 146 347 c 2
 157 347 l 1
EndSplineSet
Validated: 1
EndChar

StartChar: uni3201
Encoding: 1 12801 1
Width: 225
Flags: W
HStem: 200 49<71 102.868> 466 45<95 100 101 151.125>
VStem: 104 45<255.32 293.526> 153 47<433.015 464.885>
LayerCount: 2
Fore
SplineSet
25 228 m 0
 25 232 31 294 38 356 c 0
 45 418 52 481 52 485 c 0
 54 504 69 511 105 511 c 0
 164 511 200 495 200 468 c 0
 200 434 176 404 103 345 c 1
 102 344 l 2
 102 343 102 343 101 343 c 0
 100 343 100 343 99 342 c 1
 116 325 116 325 138 296 c 0
 147 285 149 280 149 269 c 0
 149 237 100 200 56 200 c 0
 37 200 25 211 25 228 c 0
105 467 m 2
 101 467 l 1
 100 466 l 1
 95 466 l 1
 95 462 89 400 87 389 c 1
 104 398 147 444 153 460 c 0
 153 461 153 461 152 461 c 0
 137 465 122 467 105 467 c 2
77 301 m 1
 77 300 l 2
 77 300 77 298 77 297 c 0
 76 293 74 281 71 249 c 1
 77 249 99 261 104 267 c 1
 104 269 l 2
 102 275 96 282 77 301 c 1
EndSplineSet
Validated: 1
EndChar

StartChar: uni3202
Encoding: 2 12802 2
Width: 240
Flags: W
HStem: 200 45<70.1871 166.445> 220 48<119.332 205.906>
VStem: 25 44<246.541 315.741>
LayerCount: 2
Fore
SplineSet
69 265 m 1024x20
100 245 m 0xa0
 110 245 126 250 142 256 c 0
 158 262 174 268 184 268 c 0x60
 196 268 207 257 207 245 c 0xa0
 207 234 192 220 181 220 c 1x60
 144 205 123 200 100 200 c 0
 59 200 25 230 25 266 c 0
 25 312 100 430 177 505 c 0
 181 509 187 511 193 511 c 0
 205 511 215 501 215 489 c 0
 215 483 212 477 208 473 c 0
 145 412 69 299 69 266 c 1
 73 251 82 245 100 245 c 0xa0
EndSplineSet
Validated: 1
EndChar

StartChar: uni3203
Encoding: 3 12803 3
Width: 222
Flags: W
HStem: 467 44<86.1572 142.245>
VStem: 152 45<349.866 455.84>
LayerCount: 2
Fore
SplineSet
197 422 m 0
 197 336 105 200 47 200 c 0
 35 200 25 210 25 223 c 0
 25 301 36 441 47 493 c 0
 49 503 58 510 69 511 c 2
 78 511 l 2
 155 511 197 479 197 422 c 0
71 263 m 1
 113 298 152 374 152 422 c 0
 152 449 130 465 89 467 c 1
 82 424 77 366 71 263 c 1
EndSplineSet
Validated: 1
EndChar

StartChar: uni3204
Encoding: 4 12804 4
Width: 236
Flags: W
HStem: 200 45<69 173.952> 213 44<169.094 196.803> 213 41<70.2282 168.859 169.094 196.803> 312 45<77 192.718> 467 44<91.2805 210.78>
VStem: 25 44<245 310.784>
LayerCount: 2
Fore
SplineSet
188 466 m 2x9c
 181 466 l 2
 158 467 156 467 149 467 c 2
 115 467 l 2
 114 467 113 467 113 467 c 0
 112 467 112 467 105 466 c 0
 102 466 97 466 91 465 c 1
 82 406 79 385 77 357 c 1
 170 357 l 2
 182 357 193 347 193 335 c 0
 193 323 182 312 170 312 c 2
 73 312 l 1
 70 286 69 264 69 245 c 1x9c
 95 246 134 251 156 254 c 0x3c
 162 255 166 256 169 256 c 0
 171 256 173 256 174 257 c 2
 186 257 197 247 197 235 c 0
 197 224 186 213 176 213 c 0x5c
 81 200 81 200 59 200 c 2
 47 200 l 2
 35 200 25 210 25 222 c 2
 25 237 l 2
 25 296 34 384 49 485 c 0
 49 506 68 511 147 511 c 2
 175 511 l 2
 199 511 211 504 211 488 c 0
 211 476 200 466 188 466 c 2x9c
EndSplineSet
Validated: 1
EndChar

StartChar: uni3205
Encoding: 5 12805 5
Width: 215
Flags: W
HStem: 338 45<70 180.743> 467 44<76.4444 189.821>
VStem: 25 47<200.496 338.983 382 463.244>
LayerCount: 2
Fore
SplineSet
70 382 m 1
 80 382 l 2
 81 382 83 382 84 382 c 0
 85 382 86 383 87 383 c 2
 159 383 l 2
 171 383 181 373 181 361 c 0
 181 349 172 339 160 338 c 2
 143 338 l 2
 121 338 117 338 109 339 c 2
 100 339 l 2
 83 339 81 339 69 337 c 1
 69 325 l 2
 69 285 70 254 72 225 c 2
 72 223 l 2
 72 211 61 200 49 200 c 0
 37 200 28 209 27 221 c 0
 25 247 25 260 25 325 c 0
 25 385 27 435 32 484 c 0
 33 494 41 503 51 504 c 2
 53 504 l 1
 83 509 114 511 141 511 c 0
 179 511 190 506 190 488 c 0
 190 476 180 465 168 465 c 2
 165 465 l 2
 163 465 162 466 160 466 c 0
 158 466 156 466 154 466 c 0
 150 467 148 467 141 467 c 0
 125 467 106 466 75 462 c 1
 75 461 l 2
 75 460 75 460 75 460 c 0
 74 450 73 449 72 426 c 0
 72 425 72 424 72 423 c 0
 72 417 72 410 71 400 c 0
 71 395 70 389 70 383 c 2
 70 382 l 1
EndSplineSet
Validated: 1
EndChar

StartChar: uni3206
Encoding: 6 12806 6
Width: 229
Flags: W
HStem: 213 44<69 138.231> 290 57<93.18 141.569> 469 42<158.669 203.87>
VStem: 25 44<258.095 369.403> 141 44<200.163 225 266.602 298.308>
LayerCount: 2
Fore
SplineSet
189 283 m 0
 189 271 189 267 188 260 c 0
 187 254 186 245 185 227 c 2
 185 223 l 2
 185 211 175 200 163 200 c 0
 150 200 141 209 141 223 c 2
 141 225 l 1
 81 213 81 213 69 213 c 0
 36 213 25 227 25 267 c 0
 25 382 75 464 172 509 c 0
 176 511 178 511 181 511 c 0
 193 511 204 501 204 489 c 0
 204 480 199 472 191 469 c 0
 108 430 69 366 69 267 c 2
 69 257 l 1
 76 257 142 270 144 272 c 0
 144 284 144 284 143 299 c 1
 112 290 112 290 111 290 c 0
 99 290 88 301 88 313 c 0
 88 327 91 329 124 340 c 0
 136 345 146 347 155 347 c 0
 169 347 180 339 183 327 c 0
 187 311 189 296 189 283 c 0
EndSplineSet
Validated: 1
EndChar

StartChar: uni3207
Encoding: 7 12807 7
Width: 216
Flags: W
VStem: 27 44<200.496 315.593 359 510.547> 133 45<200.315 311.034> 146 45<376.261 510.685>
LayerCount: 2
Fore
SplineSet
139 322 m 1xc0
 138 322 l 0
 134 322 115 319 71 313 c 1
 71 305 l 2
 70 255 69 237 69 229 c 0
 69 227 69 225 69 224 c 2
 69 222 l 2
 69 210 59 200 47 200 c 0
 35 200 25 211 25 223 c 0
 25 234 26 295 27 356 c 0
 28 417 29 478 29 489 c 0
 29 501 39 511 51 511 c 0
 63 511 74 501 74 489 c 0
 74 472 74 465 72 359 c 1
 93 362 139 367 140 367 c 0
 140 367 140 370 140 375 c 0
 141 401 146 485 146 490 c 0
 147 502 156 511 168 511 c 0
 180 511 191 501 191 489 c 2
 191 487 l 2xa0
 189 464 178 231 178 221 c 0
 177 209 168 200 156 200 c 0
 144 200 133 211 133 223 c 2
 133 226 l 2
 134 233 138 292 139 312 c 2
 139 322 l 1xc0
EndSplineSet
Validated: 1
EndChar

StartChar: uni3208
Encoding: 8 12808 8
Width: 316
Flags: W
HStem: 200 43<73 91.9163 226.471 290.718> 467 44<169.277 236 237 262.885>
VStem: 123 46<299.982 461>
LayerCount: 2
Fore
SplineSet
268 200 m 0
 261 200 241 208 218 218 c 0
 193 229 164 241 141 247 c 1
 128 218 96 194 71 194 c 0
 47 194 25 218 25 243 c 0
 25 272 63 298 105 298 c 2
 107 298 l 1
 113 340 119 400 123 460 c 0
 123 461 123 461 102 461 c 0
 92 460 71 458 67 457 c 0
 55 457 44 467 44 479 c 0
 44 490 52 500 63 501 c 0
 125 508 160 511 203 511 c 2
 241 511 l 2
 253 511 263 501 263 489 c 0
 263 477 253 466 241 466 c 2
 238 466 l 2
 237 466 l 0
 236 467 l 2
 203 467 l 2
 175 467 175 467 169 466 c 1
 169 463 l 1
 164 395 157 329 151 291 c 1
 178 283 205 272 230 261 c 0
 246 254 261 248 275 243 c 0
 285 239 291 231 291 223 c 0
 291 211 280 200 268 200 c 0
71 241 m 1
 73 239 l 1
 73 240 73 240 74 240 c 0
 81 243 86 246 93 253 c 1
 85 252 78 248 71 241 c 1
EndSplineSet
Validated: 1
EndChar

StartChar: uni3209
Encoding: 9 12809 9
Width: 208
Flags: W
HStem: 200 45<47.3772 111.865>
VStem: 135 44<275.284 510.652>
LayerCount: 2
Fore
SplineSet
136 445 m 0
 136 499 140 511 160 511 c 0
 172 511 183 501 183 489 c 2
 183 488 l 2
 182 481 182 481 179 425 c 2
 179 412 l 2
 176 319 169 281 145 225 c 0
 138 209 124 200 105 200 c 0
 92 200 70 206 41 216 c 0
 32 219 25 228 25 238 c 0
 25 250 35 260 47 260 c 0
 55 260 66 256 76 252 c 0
 86 248 97 245 105 245 c 1
 125 298 131 330 134 411 c 2
 134 413 l 2
 134 414 134 414 135 415 c 1
 135 427 l 2
 135 430 136 433 136 436 c 0
 136 439 136 442 136 445 c 0
EndSplineSet
Validated: 1
EndChar

StartChar: uni320A
Encoding: 10 12810 10
Width: 250
Flags: W
VStem: 25 44<200.162 304.925> 39 45<389 510.685>
LayerCount: 2
Fore
SplineSet
95 346 m 1x40
 104 337 120 323 138 309 c 0
 176 279 221 243 221 226 c 0
 221 214 211 204 199 204 c 0
 190 204 187 207 174 220 c 0
 160 234 134 258 77 303 c 0
 76 304 l 0
 74 305 l 1
 69 221 l 2
 68 209 59 200 47 200 c 0
 35 200 25 211 25 223 c 0x80
 26 225 33 363 39 490 c 0
 40 502 49 511 61 511 c 0
 73 511 84 501 84 489 c 0
 84 487 81 433 79 389 c 1
 145 428 165 464 177 486 c 0
 185 500 190 509 202 509 c 0
 214 509 225 498 225 486 c 0
 225 454 162 387 95 346 c 1x40
EndSplineSet
Validated: 1
EndChar

StartChar: uni320B
Encoding: 11 12811 11
Width: 205
Flags: W
HStem: 200 45<72.6089 179.547>
VStem: 51 44<324.197 510.856>
LayerCount: 2
Fore
SplineSet
95 489 m 0
 95 486 93 469 90 445 c 0
 84 396 75 314 71 245 c 0
 72 244 73 245 75 245 c 0
 76 245 77 245 79 245 c 0
 94 245 110 245 149 246 c 2
 158 246 l 2
 170 246 180 236 180 224 c 0
 180 212 171 202 159 201 c 0
 111 200 111 200 97 200 c 0
 44 200 25 208 25 231 c 2
 25 232 l 1
 30 320 36 383 51 492 c 0
 52 503 62 511 73 511 c 0
 85 511 95 501 95 489 c 0
EndSplineSet
Validated: 1
EndChar

StartChar: uni320C
Encoding: 12 12812 12
Width: 324
Flags: W
VStem: 25 42<200.129 230.769> 255 44<201.906 364>
LayerCount: 2
Fore
SplineSet
27 231 m 0
 28 231 27 231 27 232 c 0
 59 295 79 368 94 422 c 0
 105 461 113 492 121 502 c 0
 126 508 133 511 140 511 c 0
 162 511 167 498 169 435 c 0
 171 370 175 339 183 324 c 1
 203 337 216 395 227 441 c 0
 234 469 239 493 245 500 c 0
 250 507 257 511 266 511 c 0
 293 511 299 482 299 355 c 0
 299 306 297 255 293 220 c 0
 292 209 282 200 271 200 c 0
 259 200 249 211 249 223 c 2
 249 225 l 1
 253 264 255 308 255 355 c 2
 255 364 l 1
 235 305 212 278 181 278 c 0
 150 278 133 307 127 370 c 1
 107 303 88 253 67 212 c 0
 64 205 56 200 47 200 c 0
 35 200 25 211 25 223 c 0
 25 226 25 226 27 231 c 0
EndSplineSet
Validated: 1
EndChar

StartChar: uni320D
Encoding: 13 12813 13
Width: 270
Flags: W
VStem: 25 44<200.197 362.649> 201 44<297.245 510.885>
LayerCount: 2
Fore
SplineSet
25 223 m 2
 25 227 l 1
 36 283 43 356 49 411 c 0
 53 451 56 482 59 491 c 0
 63 503 74 511 87 511 c 0
 116 511 129 483 161 351 c 0
 162 350 162 350 162 348 c 0
 163 345 163 345 182 269 c 1
 192 315 201 417 201 489 c 0
 201 501 211 511 223 511 c 0
 235 511 245 501 245 489 c 0
 245 423 240 345 232 297 c 0
 221 227 207 200 182 200 c 0
 155 200 146 222 109 375 c 0
 109 375 108 376 108 377 c 0
 106 386 98 423 95 431 c 1
 84 311 79 270 69 218 c 0
 67 208 57 200 47 200 c 0
 35 200 25 211 25 223 c 2
EndSplineSet
Validated: 1
EndChar

StartChar: uni320E
Encoding: 14 12814 14
Width: 332
Flags: W
HStem: 200 45<84.7487 200.863> 467 44<125.161 251.498>
VStem: 25 44<261.205 407.312> 262 45<329.296 455.917>
LayerCount: 2
Fore
SplineSet
197 467 m 2
 114 466 69 414 69 319 c 0
 69 309 69 303 72 282 c 0
 75 263 110 245 144 245 c 0
 173 245 198 257 213 277 c 0
 244 320 262 370 262 410 c 0
 262 450 242 467 198 467 c 2
 197 467 l 2
25 319 m 0
 25 440 88 510 196 511 c 2
 198 511 l 2
 267 511 307 474 307 410 c 0
 307 364 284 300 249 251 c 0
 226 219 188 200 143 200 c 0
 82 200 32 233 27 277 c 0
 25 294 25 302 25 319 c 0
EndSplineSet
Validated: 1
EndChar

StartChar: uni320F
Encoding: 15 12815 15
Width: 232
Flags: W
HStem: 347 44<88 148.195> 467 44<99.5149 129 129 162.718>
VStem: 25 44<200.162 344.115> 163 44<405.375 464.748>
LayerCount: 2
Fore
SplineSet
131 511 m 0
 174 511 207 484 207 449 c 0
 207 428 193 392 178 375 c 0
 159 356 134 347 102 347 c 2
 89 347 l 2
 87 347 86 347 85 347 c 0
 84 347 83 346 82 347 c 1
 78 321 78 314 69 221 c 0
 68 209 58 200 47 200 c 0
 35 200 25 211 25 223 c 0
 25 255 52 457 59 480 c 0
 65 496 100 511 131 511 c 0
88 391 m 1
 102 391 l 2
 137 391 154 406 163 447 c 1
 163 449 l 2
 163 458 147 467 131 467 c 2
 129 467 l 1
 129 466 129 466 128 466 c 0
 120 464 110 462 99 458 c 1
 96 449 89 401 88 392 c 0
 88 391 88 391 88 391 c 1
EndSplineSet
Validated: 1
EndChar

StartChar: uni3210
Encoding: 16 12816 16
Width: 265
Flags: W
HStem: 224 45<69.8085 119.573> 467 44<132.572 168.441>
VStem: 169 44<347.443 466.531>
LayerCount: 2
Fore
SplineSet
25 280 m 0
 25 389 100 511 167 511 c 0
 198 511 213 489 213 444 c 0
 213 403 200 349 179 300 c 1
 240 231 240 231 240 222 c 0
 240 210 230 200 218 200 c 0
 210 200 205 202 201 207 c 0
 194 216 185 225 177 234 c 0
 167 245 159 255 155 260 c 1
 136 237 112 224 89 224 c 0
 56 224 25 252 25 280 c 0
121 355 m 0
 130 355 135 351 146 337 c 1
 160 376 169 418 169 444 c 0
 169 449 169 449 166 467 c 1
 125 466 76 372 69 281 c 1
 70 281 l 1
 75 273 82 269 89 269 c 0
 100 269 113 278 125 295 c 1
 99 325 99 326 99 332 c 0
 99 344 109 355 121 355 c 0
EndSplineSet
Validated: 1
EndChar

StartChar: uni3211
Encoding: 17 12817 17
Width: 243
Flags: W
HStem: 467 44<87.4582 162.366>
VStem: 28 45<200.968 297 331 463.625> 173 45<383.75 454.616>
LayerCount: 2
Fore
SplineSet
73 331 m 1
 78 336 88 342 100 348 c 0
 130 364 173 386 173 424 c 0
 173 450 143 467 99 467 c 0
 91 467 91 467 89 466 c 0
 78 415 74 385 73 331 c 1
123 308 m 1
 129 300 138 291 148 281 c 0
 168 260 191 237 191 222 c 0
 191 210 181 200 169 200 c 0
 162 200 155 203 151 210 c 0
 134 235 114 255 97 272 c 0
 88 281 80 289 73 297 c 1
 73 285 70 225 69 221 c 0
 68 209 59 200 47 200 c 0
 31 200 26 204 26 236 c 0
 26 243 27 251 27 261 c 0
 27 268 28 275 28 282 c 0
 28 289 28 295 28 302 c 2
 28 307 l 2
 29 383 33 418 47 482 c 0
 51 501 69 511 99 511 c 0
 167 511 218 474 218 424 c 0
 218 379 187 341 123 308 c 1
EndSplineSet
Validated: 1
EndChar

StartChar: uni3212
Encoding: 18 12818 18
Width: 264
Flags: W
HStem: 200 44<67.4286 144.364> 463 48<154.117 210 210 238.617>
VStem: 75 45<367.575 433.571> 157 44<253.363 314.175>
LayerCount: 2
Fore
SplineSet
116 200 m 0
 76 200 25 226 25 247 c 0
 25 259 35 269 47 269 c 0
 59 269 71 262 82 256 c 0
 93 250 104 244 116 244 c 0
 135 244 148 260 157 294 c 0
 157 297 148 306 131 320 c 0
 90 353 75 375 75 405 c 0
 75 452 113 482 209 511 c 0
 210 512 210 511 210 511 c 0
 211 511 l 2
 216 511 l 2
 228 511 239 501 239 489 c 0
 239 474 236 472 207 463 c 0
 175 454 161 449 148 441 c 0
 131 430 121 419 120 410 c 2
 120 405 l 2
 120 382 140 366 160 350 c 0
 180 334 201 317 201 294 c 0
 201 247 159 200 116 200 c 0
EndSplineSet
Validated: 1
EndChar

StartChar: uni3213
Encoding: 19 12819 19
Width: 281
Flags: W
HStem: 458 44<25.1441 108.231> 467 44<47.1848 111 155 255.232>
VStem: 86 47<200.365 397.234> 108 47<270.43 465>
LayerCount: 2
Fore
SplineSet
86 218 m 0x60
 86 221 87 221 88 222 c 0
 89 223 89 223 89 226 c 0
 99 295 105 363 108 449 c 2
 108 452 l 2
 108 457 108 458 110 458 c 0
 111 458 111 458 111 465 c 1
 51 458 51 458 47 458 c 0
 35 458 25 468 25 480 c 0
 25 491 33 501 44 502 c 0x90
 93 509 125 511 165 511 c 0
 212 511 221 511 235 509 c 0
 246 508 256 498 256 486 c 0
 256 474 245 464 233 464 c 2
 232 464 l 2
 213 466 191 467 165 467 c 2
 155 467 l 1x50
 155 408 144 288 133 219 c 0
 131 208 122 200 111 200 c 0
 96 200 86 207 86 218 c 0x60
EndSplineSet
Validated: 1
EndChar

StartChar: uni3214
Encoding: 20 12820 20
Width: 226
Flags: W
HStem: 200 43<78.8867 112.265>
VStem: 25 44<246.349 488.28> 36 45<332.662 510.686> 157 44<329.988 510.885>
LayerCount: 2
Fore
SplineSet
81 489 m 0xb0
 81 476 78 443 75 410 c 0
 72 377 69 344 69 331 c 0
 69 288 73 262 82 249 c 0
 84 246 87 243 88 243 c 0
 123 243 155 358 157 489 c 0
 157 501 167 511 179 511 c 0
 191 511 201 501 201 489 c 0
 201 319 155 200 89 200 c 0
 46 200 25 242 25 331 c 0xd0
 25 366 29 431 36 491 c 0
 37 502 47 511 58 511 c 0
 70 511 81 501 81 489 c 0xb0
EndSplineSet
Validated: 1
EndChar

StartChar: uni3215
Encoding: 21 12821 21
Width: 276
Flags: W
VStem: 207 44<482 510.727>
LayerCount: 2
Fore
SplineSet
249 481 m 1
 238 453 234 440 212 362 c 0
 212 361 212 360 211 359 c 2
 164 216 156 200 133 200 c 0
 110 200 102 219 59 375 c 0
 41 439 28 483 25 489 c 1
 25 501 35 511 47 511 c 0
 65 511 68 505 90 428 c 0
 99 391 112 348 135 276 c 1
 141 292 150 320 161 355 c 0
 174 397 190 449 207 497 c 0
 210 505 218 511 228 511 c 0
 240 511 251 501 251 489 c 0
 251 486 251 486 250 483 c 0
 250 482 250 482 249 482 c 1
 249 481 l 1
EndSplineSet
Validated: 1
EndChar

StartChar: uni3216
Encoding: 22 12822 22
Width: 424
Flags: W
VStem: 355 44<420.463 510.743>
LayerCount: 2
Fore
SplineSet
25 484 m 1
 25 488 l 1
 24 488 25 488 25 489 c 0
 25 501 35 511 47 511 c 0
 58 511 67 503 69 493 c 0
 97 353 112 289 125 255 c 1
 140 284 151 327 161 367 c 0
 171 406 179 442 190 455 c 0
 197 464 205 469 216 469 c 0
 247 469 259 441 275 331 c 0
 281 286 283 272 287 257 c 1
 301 286 319 352 333 410 c 0
 342 445 349 477 355 495 c 0
 358 504 366 511 376 511 c 0
 388 511 399 501 399 489 c 0
 399 488 399 488 379 410 c 2
 376 399 l 2
 332 232 317 200 284 200 c 0
 266 200 254 213 245 242 c 1
 245 243 l 1
 239 267 235 297 231 326 c 0
 227 355 223 383 217 404 c 1
 211 388 206 366 200 342 c 0
 191 308 181 271 171 248 c 0
 158 216 141 200 121 200 c 0
 90 200 75 240 39 421 c 0
 36 434 30 463 25 484 c 1
EndSplineSet
Validated: 1
EndChar

StartChar: uni3217
Encoding: 23 12823 23
Width: 301
Flags: W
VStem: 25 251
LayerCount: 2
Fore
SplineSet
25 222 m 0
 25 231 28 234 40 248 c 0
 53 263 76 290 119 350 c 1
 86 428 63 484 63 489 c 0
 63 501 74 511 86 511 c 0
 99 511 105 505 112 487 c 0
 113 484 114 481 116 476 c 0
 121 464 129 443 143 409 c 2
 150 393 l 1
 176 428 198 457 237 503 c 0
 242 508 248 511 254 511 c 0
 266 511 276 501 276 489 c 0
 276 481 272 476 258 459 c 0
 244 442 221 414 182 360 c 0
 178 355 171 345 171 345 c 0
 194 296 211 267 228 244 c 0
 238 230 239 228 239 222 c 0
 239 210 229 200 217 200 c 0
 210 200 204 203 199 209 c 0
 177 238 161 265 141 304 c 1
 123 279 105 258 63 208 c 0
 57 202 53 200 47 200 c 0
 35 200 25 210 25 222 c 0
EndSplineSet
Validated: 1
EndChar

StartChar: uni3218
Encoding: 24 12824 24
Width: 225
Flags: W
VStem: 25 43<449.073 510.845> 84 44<200.179 233 234 375.254> 129 71<448.119 484.781>
LayerCount: 2
Fore
SplineSet
83 234 m 1
 83 244 84 262 85 279 c 0
 86 296 87 314 87 324 c 0
 87 347 87 348 86 355 c 1
 69 366 56 392 39 449 c 1
 38 449 l 2
 37 450 25 487 25 489 c 0
 25 501 35 511 47 511 c 0
 57 511 65 505 68 497 c 0
 71 490 74 480 78 469 c 0
 87 444 98 412 107 396 c 1
 115 408 122 424 129 442 c 0
 138 463 147 485 159 502 c 0
 163 508 169 511 177 511 c 0
 189 511 200 501 200 489 c 0
 200 480 200 480 197 477 c 0
 188 468 179 445 169 422 c 0
 157 394 145 365 131 355 c 1
 132 347 132 347 132 321 c 0
 132 302 131 290 130 278 c 0
 129 266 128 253 128 234 c 2
 128 223 l 2
 128 211 118 200 106 200 c 0
 94 200 84 210 84 222 c 2
 84 233 l 1
 83 234 l 1
EndSplineSet
Validated: 1
EndChar

StartChar: uni3219
Encoding: 25 12825 25
Width: 268
Flags: W
HStem: 200 45<72.8197 217.796> 462 49<40.0553 196.165>
VStem: 25 218
LayerCount: 2
Fore
SplineSet
92 245 m 0
 109 245 132 249 154 253 c 0
 176 257 199 261 216 261 c 0
 228 261 238 250 238 238 c 0
 238 228 231 220 222 217 c 0
 188 207 135 200 92 200 c 0
 43 200 25 210 25 238 c 0
 25 272 63 308 104 346 c 0
 144 383 186 421 197 462 c 1
 184 465 164 467 145 467 c 0
 129 467 124 467 63 462 c 1
 61 462 l 2
 49 462 39 473 39 485 c 0
 39 496 48 506 59 507 c 0
 108 510 121 511 145 511 c 0
 214 511 243 499 243 470 c 2
 243 466 l 1
 238 422 215 389 142 320 c 0
 108 289 77 256 72 246 c 1
 83 245 84 245 92 245 c 0
EndSplineSet
Validated: 1
EndChar

StartChar: uni3220
Encoding: 26 12832 26
Width: 229
Flags: W
HStem: 200 45<69 103.893> 355 45<101.618 146.682>
VStem: 25 44<245.044 321.136> 145 44<284.167 354.562> 151 53<202.087 244.92>
LayerCount: 2
Fore
SplineSet
189 301 m 0xf0
 189 275 192 269 196 262 c 0
 200 255 204 249 204 223 c 0
 204 211 193 200 181 200 c 0
 165 200 160 208 151 245 c 1xe8
 123 217 92 200 69 200 c 0
 42 200 25 221 25 254 c 0
 25 336 77 400 142 400 c 0
 176 400 195 390 195 372 c 0
 195 360 194 348 192 336 c 0
 190 324 189 313 189 301 c 0xf0
70 245 m 0
 84 245 125 279 145 307 c 1xf0
 145 342 145 347 147 355 c 1
 142 355 l 2
 103 355 69 308 69 254 c 0
 69 246 69 246 70 245 c 0
EndSplineSet
Validated: 1
EndChar

StartChar: uni3221
Encoding: 27 12833 27
Width: 209
Flags: W
HStem: 355 45<95.3818 138.721>
VStem: 32 45<383.898 510.685> 139 45<285.843 354.739>
LayerCount: 2
Fore
SplineSet
139 337 m 0
 139 350 136 355 129 355 c 0
 97 355 74 313 70 245 c 1
 80 246 85 250 106 272 c 2
 119 285 l 2
 131 298 139 319 139 337 c 0
47 201 m 2
 34 201 25 211 25 225 c 2
 25 249 l 2
 25 314 28 430 32 490 c 0
 33 502 42 511 54 511 c 0
 66 511 77 501 77 489 c 2
 77 483 l 1
 72 385 72 385 72 381 c 1
 85 392 108 400 129 400 c 0
 164 400 184 377 184 337 c 0
 184 300 172 274 139 241 c 0
 110 210 93 200 68 200 c 2
 47 201 l 2
EndSplineSet
Validated: 1
EndChar

StartChar: uni3222
Encoding: 28 12834 28
Width: 198
Flags: W
HStem: 200 45<70.3312 172.429> 357 43<114.41 168.718>
VStem: 25 44<245.519 310.919>
LayerCount: 2
Fore
SplineSet
128 245 m 2
 131 245 132 245 138 246 c 2
 140 247 145 247 151 247 c 0
 163 247 173 237 173 225 c 0
 173 208 159 200 128 200 c 0
 61 200 26 215 25 245 c 2
 25 254 l 2
 25 320 91 400 146 400 c 0
 158 400 169 389 169 377 c 0
 169 368 163 360 153 357 c 0
 101 340 69 301 69 254 c 2
 69 253 l 2
 69 247 79 245 109 245 c 2
 128 245 l 2
EndSplineSet
Validated: 1
EndChar

StartChar: uni3223
Encoding: 29 12835 29
Width: 224
Flags: W
HStem: 200 45<69.5237 127.133> 355 45<84.7792 144.73>
VStem: 25 44<245.112 342.848> 146 53<259.349 342.953 391 507.572> 155 44<392.132 510.838>
LayerCount: 2
Fore
SplineSet
193 338 m 0xf0
 193 333 194 306 195 280 c 0
 196 254 197 228 197 223 c 0
 197 211 186 200 174 200 c 0
 162 200 152 210 151 222 c 1
 131 209 101 200 81 200 c 0
 46 200 25 225 25 267 c 0
 25 344 59 400 107 400 c 0
 118 400 128 398 146 391 c 1xf0
 147 415 150 449 155 491 c 0xe8
 156 502 166 511 177 511 c 0
 190 511 199 502 199 489 c 2
 199 485 l 1
 195 435 193 383 193 338 c 0xf0
145 336 m 2
 145 338 l 2
 146 341 146 342 145 343 c 0
 130 351 117 355 107 355 c 0
 87 355 69 313 69 267 c 0
 69 250 72 245 81 245 c 0
 87 245 93 247 100 250 c 0
 107 253 113 256 119 256 c 0
 140 264 146 271 146 289 c 2
 146 290 l 2
 145 306 145 313 145 336 c 2
EndSplineSet
EndChar

StartChar: uni3224
Encoding: 30 12836 30
Width: 206
Flags: W
HStem: 200 45<74.4988 161.96>
VStem: 115 46<305.211 353.752>
LayerCount: 2
Fore
SplineSet
93 245 m 0
 105 245 116 250 126 254 c 0
 136 258 146 263 158 263 c 0
 170 263 181 253 181 241 c 0
 181 232 176 225 169 221 c 0
 142 206 119 200 93 200 c 0
 52 200 25 228 25 271 c 0
 25 339 66 400 111 400 c 0
 139 400 161 372 161 336 c 0
 161 297 119 256 74 251 c 1
 77 246 81 245 93 245 c 0
115 329 m 2
 115 330 116 331 116 332 c 0
 117 333 117 334 117 335 c 2
 117 336 l 2
 117 341 114 348 109 355 c 1
 91 348 82 333 73 296 c 1
 92 299 104 309 115 328 c 1
 115 329 l 2
EndSplineSet
Validated: 1
EndChar

StartChar: uni3225
Encoding: 31 12837 31
Width: 252
Flags: W
HStem: 349 45<25.4531 78.9531 129 225.406> 467 44<144.17 198.664>
VStem: 76 45<200.496 284 285 348.4> 83 46<396 454.89>
LayerCount: 2
Fore
SplineSet
123 351 m 1xd0
 123 346 122 316 121 286 c 0
 120 256 119 226 119 221 c 0
 118 209 109 200 97 200 c 0
 85 200 74 211 74 223 c 0
 75 225 75 228 75 244 c 0
 75 248 76 250 76 254 c 0
 76 258 76 261 76 265 c 2
 76 282 l 2
 76 284 l 0xe0
 77 285 l 0
 78 336 78 336 79 349 c 1
 78 348 77 349 75 349 c 0
 74 349 73 349 72 349 c 2
 67 349 l 2
 61 349 58 349 54 348 c 0
 53 348 51 348 50 348 c 0
 49 348 48 347 47 347 c 0
 35 347 25 357 25 369 c 0
 25 387 36 393 71 393 c 0
 72 393 73 394 74 394 c 0
 75 394 76 394 77 394 c 2
 83 394 l 1
 93 471 122 511 169 511 c 0
 191 511 214 490 214 471 c 0
 214 459 204 448 192 448 c 0
 187 448 183 453 180 458 c 0
 177 463 174 467 169 467 c 0
 150 467 136 442 129 396 c 1
 151 397 170 398 186 399 c 0
 189 399 191 400 194 400 c 0
 197 400 200 400 203 400 c 2
 205 400 l 2
 217 400 227 389 227 377 c 0
 227 365 218 356 206 355 c 0
 183 353 140 351 123 351 c 1xd0
EndSplineSet
Validated: 1
EndChar

StartChar: uni3226
Encoding: 32 12838 32
Width: 251
Flags: W
HStem: 45 44<76.0912 121.686> 200 44<115.897 151.954>
VStem: 25 201
LayerCount: 2
Fore
SplineSet
115 253 m 1
 128 248 142 244 149 244 c 0
 151 244 151 244 152 245 c 2
 153 245 l 1
 165 256 170 276 179 351 c 1
 146 336 118 293 115 253 c 1
47 125 m 0
 55 125 67 116 78 107 c 0
 89 98 101 89 109 89 c 0
 117 89 138 143 152 200 c 1
 149 200 l 2
 108 200 70 222 70 246 c 0
 70 320 133 400 192 400 c 0
 208 400 226 385 226 372 c 0
 226 295 180 107 151 69 c 0
 141 54 125 45 109 45 c 0
 89 45 70 55 33 85 c 0
 28 89 25 96 25 103 c 0
 25 115 35 125 47 125 c 0
EndSplineSet
Validated: 1
EndChar

StartChar: uni3227
Encoding: 33 12839 33
Width: 239
Flags: W
HStem: 354 46<119.332 165.269>
VStem: 55 45<386 510.633> 169 45<201.684 353.435>
LayerCount: 2
Fore
SplineSet
55 407 m 2
 55 418 l 2
 55 431 55 438 56 471 c 0
 56 475 56 478 56 481 c 0
 56 484 57 487 57 491 c 0
 58 503 67 511 79 511 c 0
 91 511 102 501 102 489 c 2
 102 488 l 2
 101 459 100 431 100 406 c 2
 100 386 l 1
 119 396 135 400 149 400 c 0
 190 400 214 365 214 306 c 0
 214 297 210 239 208 224 c 2
 208 221 l 2
 207 209 198 200 186 200 c 0
 174 200 164 211 164 223 c 0
 164 230 165 247 166 264 c 0
 167 281 169 299 169 306 c 0
 169 327 165 342 156 354 c 1
 155 354 l 2
 152 355 152 355 149 355 c 0
 138 354 126 350 119 345 c 0
 110 333 101 312 90 283 c 0
 83 257 76 235 68 214 c 0
 65 206 56 200 47 200 c 0
 34 200 25 209 25 222 c 0
 25 228 28 235 32 246 c 0
 36 258 41 274 47 297 c 0
 53 331 55 356 55 407 c 2
EndSplineSet
Validated: 1
EndChar

StartChar: uni3228
Encoding: 34 12840 34
Width: 108
Flags: W
HStem: 467 44<39.1152 82.8848>
VStem: 25 44<200.162 372.924> 39 44<226.506 398.526 467.115 510.885>
LayerCount: 2
Fore
SplineSet
56 400 m 0xc0
 68 400 79 389 79 377 c 0
 73 289 71 268 69 221 c 0
 68 209 59 200 47 200 c 0
 35 200 25 211 25 223 c 0
 30 298 33 360 34 375 c 0
 34 377 34 379 34 379 c 0
 35 391 44 400 56 400 c 0xc0
39 489 m 0xa0
 39 501 49 511 61 511 c 0
 73 511 83 501 83 489 c 0
 83 477 73 467 61 467 c 0
 49 467 39 477 39 489 c 0xa0
EndSplineSet
Validated: 1
EndChar

StartChar: uni3229
Encoding: 35 12841 35
Width: 198
Flags: W
HStem: 140 45<47.4219 106.604> 467 44<128.126 172.885>
VStem: 117 42<186.813 372.904> 128 45<467.257 510.743>
LayerCount: 2
Fore
SplineSet
47 200 m 0xe0
 56 200 65 196 74 192 c 0
 83 188 91 185 100 185 c 2
 101 185 l 1
 114 224 117 242 117 277 c 2
 117 286 l 2
 117 314 119 339 123 381 c 0
 124 392 134 400 145 400 c 0
 157 400 168 389 168 377 c 2
 168 375 l 1
 167 375 l 1
 161 330 160 303 159 280 c 0
 158 246 158 222 139 163 c 0
 134 148 121 140 100 140 c 0
 83 140 62 146 37 158 c 0
 30 161 25 169 25 178 c 0
 25 190 35 200 47 200 c 0xe0
128 489 m 0xd0
 128 501 139 511 151 511 c 0
 163 511 173 501 173 489 c 0
 173 477 163 467 151 467 c 0
 139 467 128 477 128 489 c 0xd0
EndSplineSet
Validated: 1
EndChar

StartChar: uni322A
Encoding: 36 12842 36
Width: 207
Flags: W
VStem: 28 44<200.282 263 352 490.174>
LayerCount: 2
Fore
SplineSet
160 200 m 0
 152 200 152 200 143 208 c 0
 125 224 104 240 72 263 c 1
 72 242 72 236 73 231 c 0
 73 226 73 225 74 223 c 0
 74 211 63 200 51 200 c 0
 39 200 30 209 29 221 c 0
 29 227 28 234 28 240 c 0
 28 246 28 254 28 260 c 0
 28 279 27 300 26 318 c 0
 25 337 25 353 25 359 c 0
 25 417 27 453 33 492 c 0
 34 503 44 511 55 511 c 0
 67 511 77 501 77 489 c 2
 77 486 l 1
 72 445 69 401 69 359 c 2
 69 352 l 1
 129 389 148 400 156 400 c 0
 168 400 178 390 178 378 c 0
 178 362 163 350 117 327 c 1
 116 327 l 1
 90 313 90 313 85 309 c 1
 174 245 182 238 182 222 c 0
 182 210 172 200 160 200 c 0
EndSplineSet
Validated: 1
EndChar

StartChar: uni322B
Encoding: 37 12843 37
Width: 102
Flags: W
VStem: 25 44<200.162 489.643>
LayerCount: 2
Fore
SplineSet
55 511 m 0
 67 511 77 501 77 489 c 2
 77 487 l 2
 75 467 74 434 73 356 c 0
 73 293 72 264 69 221 c 0
 68 209 58 200 47 200 c 0
 35 200 25 211 25 223 c 2
 25 224 l 2
 27 242 27 242 29 356 c 2
 29 387 l 2
 29 436 30 462 33 491 c 0
 34 502 43 511 55 511 c 0
EndSplineSet
Validated: 1
EndChar

StartChar: uni322C
Encoding: 38 12844 38
Width: 344
Flags: W
HStem: 347 45<98.1653 151.945 224.641 271.395>
VStem: 28 46<200.916 269.859 272 321.531> 148 45<233.279 306.396> 271 44<200.179 345.582>
LayerCount: 2
Fore
SplineSet
271 229 m 2
 271 235 271 250 272 264 c 0
 273 278 274 293 274 299 c 0
 274 334 268 347 252 347 c 0
 231 347 203 302 193 251 c 0
 191 241 182 233 171 233 c 0
 158 233 148 243 148 256 c 0
 148 269 150 276 152 282 c 0
 154 288 155 294 155 307 c 0
 155 323 151 336 143 346 c 0
 142 346 142 346 141 347 c 0
 104 347 77 314 74 265 c 0
 72 214 66 200 47 200 c 0
 34 200 25 209 25 222 c 2
 25 224 l 2
 26 231 26 231 26 232 c 0
 26 234 26 236 27 237 c 0
 27 239 28 240 28 242 c 0
 28 244 28 246 28 248 c 0
 28 252 28 256 29 262 c 0
 29 264 30 267 30 270 c 2
 30 271 l 1
 31 272 l 1
 31 283 l 1
 36 366 47 400 70 400 c 0
 82 400 91 391 92 379 c 1
 111 387 128 391 141 391 c 0
 164 391 176 383 189 357 c 1
 207 380 229 392 252 392 c 0
 296 392 319 360 319 299 c 0
 319 285 318 274 317 264 c 0
 316 254 315 243 315 229 c 2
 315 223 l 1
 316 223 l 1
 316 211 305 200 293 200 c 0
 281 200 271 210 271 222 c 2
 271 229 l 2
EndSplineSet
Validated: 1
EndChar

StartChar: uni322D
Encoding: 39 12845 39
Width: 224
Flags: W
HStem: 341 45<97.7947 151.904>
VStem: 25 46<200.307 317.424> 153 45<200.233 340.379>
LayerCount: 2
Fore
SplineSet
153 222 m 2
 153 227 l 2
 155 270 155 270 155 280 c 2
 155 281 l 2
 155 316 152 334 145 341 c 1
 141 341 l 2
 130 341 105 331 94 323 c 0
 74 295 72 265 71 242 c 0
 70 217 69 200 47 200 c 0
 33 200 25 210 25 225 c 0
 25 272 38 342 55 386 c 0
 58 395 66 400 75 400 c 0
 87 400 98 389 98 377 c 1
 97 377 l 1
 97 376 l 1
 114 383 128 386 141 386 c 0
 182 386 199 355 199 281 c 0
 199 275 198 270 198 266 c 0
 198 262 198 257 198 251 c 0
 198 245 198 240 198 236 c 0
 198 232 197 227 197 221 c 0
 196 209 187 200 175 200 c 0
 162 200 153 209 153 222 c 2
EndSplineSet
Validated: 1
EndChar

StartChar: uni322E
Encoding: 40 12846 40
Width: 206
Flags: W
HStem: 200 45<70.6859 115.415>
VStem: 25 45<246.225 322.875> 138 43<264.171 354.193>
LayerCount: 2
Fore
SplineSet
80 200 m 0
 44 200 25 221 25 260 c 0
 25 332 76 396 136 400 c 1
 139 400 l 2
 165 400 181 376 181 339 c 0
 181 318 177 293 169 269 c 0
 157 235 143 219 117 208 c 0
 103 203 91 200 80 200 c 0
135 355 m 1
 101 351 69 305 69 260 c 0
 69 259 70 258 70 257 c 0
 70 256 70 255 70 254 c 0
 70 253 70 251 70 250 c 0
 70 249 71 248 71 247 c 2
 71 246 l 2
 72 245 73 245 80 245 c 0
 91 245 105 250 113 257 c 0
 114 258 138 286 138 330 c 0
 138 338 137 346 135 355 c 1
EndSplineSet
Validated: 1
EndChar

StartChar: uni322F
Encoding: 41 12847 41
Width: 222
Flags: W
HStem: 200 45<83.8688 134.817> 355 45<81.4404 151.633>
VStem: 31 44<66.6912 209 250.183 348.607> 153 44<262.391 354.438>
LayerCount: 2
Fore
SplineSet
153 317 m 2
 153 350 149 355 126 355 c 0
 104 355 93 354 82 350 c 1
 78 320 77 308 77 301 c 0
 78 265 90 245 110 245 c 0
 127 245 152 283 153 310 c 2
 153 317 l 2
126 400 m 0
 176 400 197 375 197 317 c 0
 197 255 156 200 109 200 c 0
 99 200 88 203 75 209 c 1
 75 187 l 2
 75 142 73 101 69 65 c 0
 68 54 58 45 47 45 c 0
 35 45 25 55 25 67 c 2
 25 69 l 1
 29 98 31 138 31 187 c 2
 31 225 l 2
 31 251 31 259 33 302 c 2
 33 305 l 2
 33 332 38 369 43 378 c 0
 47 384 50 387 55 389 c 0
 76 397 98 400 126 400 c 0
EndSplineSet
Validated: 1
EndChar

StartChar: uni3230
Encoding: 42 12848 42
Width: 200
Flags: W
HStem: 200 45<69.6242 103.214>
VStem: 25 44<245.368 324.967> 117 46<45.2571 210.708>
LayerCount: 2
Fore
SplineSet
175 371 m 0
 175 324 171 279 168 234 c 0
 165 189 162 143 162 96 c 0
 163 91 163 88 163 67 c 0
 163 55 152 45 140 45 c 0
 128 45 117 55 117 67 c 2
 117 108 l 2
 117 123 117 133 118 182 c 0
 118 187 118 192 118 197 c 0
 118 202 119 207 119 212 c 1
 109 204 97 200 85 200 c 0
 48 200 25 221 25 257 c 0
 25 275 28 286 43 331 c 0
 54 368 95 400 131 400 c 0
 155 400 175 387 175 371 c 0
69 257 m 0
 69 247 72 245 85 245 c 0
 100 245 120 295 129 355 c 1
 112 353 90 334 85 317 c 0
 80 305 69 264 69 257 c 0
EndSplineSet
Validated: 1
EndChar

StartChar: uni3231
Encoding: 43 12849 43
Width: 197
Flags: W
HStem: 200 200<33.5222 70.48>
VStem: 25 46<200.258 223.377 224.991 303.996> 33 44<257.932 309.124 352.232 399.838>
LayerCount: 2
Fore
SplineSet
76 352 m 1xa0
 106 380 136 400 149 400 c 0
 161 400 172 389 172 377 c 0
 172 365 168 364 158 358 c 0
 147 352 127 340 93 306 c 0
 75 294 71 282 71 243 c 2
 71 230 l 2
 71 229 71 228 71 227 c 0
 71 225 70 224 71 223 c 0
 71 210 62 200 49 200 c 0
 30 200 25 212 25 257 c 0xc0
 25 277 26 289 28 304 c 0
 30 321 32 341 33 379 c 0
 34 391 43 400 55 400 c 0
 67 400 77 389 77 377 c 0
 77 358 77 357 76 352 c 1xa0
EndSplineSet
Validated: 1
EndChar

StartChar: uni3232
Encoding: 44 12850 44
Width: 210
Flags: W
HStem: 200 43<37.1544 121.805> 355 45<104.378 172.418>
VStem: 59 45<324.148 354.226> 124 45<249.534 285.999>
LayerCount: 2
Fore
SplineSet
47 250 m 0
 57 250 59 248 62 246 c 0
 65 244 67 243 77 243 c 0
 99 243 124 257 124 269 c 0
 124 276 122 279 110 284 c 0
 82 295 59 321 59 341 c 0
 59 376 87 400 128 400 c 0
 162 400 185 388 185 371 c 0
 185 359 175 348 163 348 c 0
 154 348 150 350 146 352 c 0
 142 354 137 355 128 355 c 0
 112 355 104 350 104 341 c 0
 104 333 109 329 121 325 c 0
 148 316 169 291 169 269 c 0
 169 230 132 200 85 200 c 0
 46 200 25 210 25 228 c 0
 25 240 35 250 47 250 c 0
EndSplineSet
Validated: 1
EndChar

StartChar: uni3233
Encoding: 45 12851 45
Width: 224
Flags: W
HStem: 279 20G<156 170> 354 46<26.9668 47.7907 48 85 133 198.547>
VStem: 79 45<248.788 354> 89 44<400 510.839> 139 48<248.546 298.429>
LayerCount: 2
Fore
SplineSet
79 276 m 2xe8
 79 284 82 327 85 354 c 1
 84 354 83 354 82 354 c 0
 81 354 79 353 78 353 c 0
 71 353 61 352 57 351 c 2
 56 350 56 350 55 350 c 2
 53 350 l 1
 53 349 l 1
 48 349 l 1
 48 348 48 349 47 349 c 0
 35 349 25 359 25 371 c 0
 25 382 32 391 43 393 c 2
 44 394 44 394 45 394 c 2
 47 394 l 2
 48 394 52 394 57 395 c 0
 66 396 78 397 86 399 c 2
 88 399 l 1
 89 425 90 443 90 458 c 0
 90 475 90 478 89 486 c 2
 89 489 l 2
 89 501 99 511 111 511 c 0
 123 511 132 502 133 491 c 2
 133 487 l 2
 134 469 135 462 135 460 c 0
 135 459 135 459 135 459 c 2
 135 458 l 2
 135 444 135 431 133 400 c 1xd8
 137 400 140 400 144 400 c 0
 148 400 152 399 156 399 c 0
 160 399 164 398 167 398 c 0
 170 398 174 398 178 398 c 0
 190 397 199 388 199 376 c 0
 199 364 189 353 177 353 c 2
 176 353 l 2
 172 353 168 354 164 354 c 0
 160 354 156 354 152 354 c 0
 148 354 144 354 140 354 c 0
 136 354 133 355 129 355 c 1
 125 315 124 299 124 269 c 0
 124 256 124 253 125 247 c 1
 132 254 136 264 139 273 c 0
 144 287 148 299 164 299 c 0
 176 299 187 289 187 277 c 0
 187 242 149 200 117 200 c 0
 91 200 79 222 79 269 c 2
 79 276 l 2xe8
EndSplineSet
Validated: 1
EndChar

StartChar: uni3234
Encoding: 46 12852 46
Width: 234
Flags: W
HStem: 200 45<70.583 109.191>
VStem: 26 43<245.178 399.726> 163 45<200.282 255 321.234 399.76>
LayerCount: 2
Fore
SplineSet
72 356 m 0
 72 343 71 332 70 322 c 0
 69 312 69 302 69 289 c 0
 69 254 72 245 83 245 c 0
 101 252 133 285 157 321 c 1
 158 321 l 1
 162 326 163 330 163 339 c 2
 163 378 l 2
 163 391 172 400 185 400 c 0
 202 400 209 387 209 357 c 0
 209 340 209 337 208 335 c 2
 208 223 l 2
 208 211 197 200 185 200 c 0
 173 200 163 211 163 223 c 2
 163 255 l 1
 127 216 104 200 83 200 c 0
 58 200 38 215 29 239 c 0
 26 249 25 259 25 279 c 2
 25 289 l 2
 25 295 26 301 26 306 c 0
 26 311 26 316 26 322 c 0
 26 328 26 334 26 339 c 0
 26 344 27 350 27 356 c 0
 27 371 27 371 28 374 c 2
 28 379 l 2
 28 391 37 400 49 400 c 0
 64 400 72 385 72 356 c 0
EndSplineSet
Validated: 1
EndChar

StartChar: uni3235
Encoding: 47 12853 47
Width: 226
Flags: W
HStem: 200 200
VStem: 25 176
LayerCount: 2
Fore
SplineSet
25 377 m 2
 25 389 35 400 47 400 c 0
 57 400 65 394 68 386 c 0
 69 383 74 368 81 349 c 0
 91 320 105 283 111 267 c 1
 111 270 147 360 159 387 c 0
 162 394 170 400 179 400 c 0
 191 400 201 389 201 377 c 0
 201 371 201 371 199 368 c 0
 186 342 174 311 164 283 c 0
 153 252 143 224 133 212 c 0
 126 204 119 200 110 200 c 0
 88 200 79 215 51 299 c 2
 25 377 l 2
EndSplineSet
Validated: 1
EndChar

StartChar: uni3236
Encoding: 48 12854 48
Width: 360
Flags: W
HStem: 200 200<67 69.1638 245 313>
VStem: 25 56<278.422 395.256> 291 44<293.893 399.874>
LayerCount: 2
Fore
SplineSet
25 375 m 2
 25 377 l 2
 25 389 35 400 47 400 c 0
 66 400 70 391 81 321 c 0
 90 271 92 261 97 251 c 1
 153 338 168 353 199 353 c 0
 228 353 240 332 244 277 c 0
 245 264 245 260 248 245 c 1
 254 248 261 259 267 276 c 0
 270 285 270 285 291 383 c 0
 293 393 302 400 313 400 c 0
 325 400 335 389 335 377 c 0
 335 360 309 260 301 244 c 0
 287 215 268 200 245 200 c 0
 215 200 203 219 199 276 c 0
 198 281 198 284 198 290 c 0
 197 304 197 304 196 305 c 2
 195 306 195 306 195 307 c 1
 181 300 169 278 156 257 c 0
 139 229 121 200 98 200 c 0
 67 200 52 228 37 315 c 1
 37 317 l 1
 33 346 25 374 25 375 c 2
EndSplineSet
Validated: 1
EndChar

StartChar: uni3237
Encoding: 49 12855 49
Width: 216
Flags: W
HStem: 200 200<38 60 156 175>
VStem: 27 55<340.45 396.746>
LayerCount: 2
Fore
SplineSet
29 237 m 0
 33 241 56 271 75 297 c 1
 36 356 27 370 27 377 c 0
 27 389 38 400 50 400 c 0
 62 400 67 396 82 369 c 0
 82 368 94 349 103 336 c 1
 141 385 156 400 169 400 c 0
 181 400 191 390 191 378 c 0
 191 369 189 364 185 361 c 0
 169 347 142 316 129 297 c 1
 143 278 156 263 180 237 c 0
 183 233 185 228 185 222 c 0
 185 210 175 200 163 200 c 0
 156 200 151 202 147 207 c 0
 124 233 118 240 103 259 c 1
 64 204 60 200 47 200 c 0
 35 200 25 210 25 222 c 0
 25 230 26 234 29 237 c 0
EndSplineSet
Validated: 1
EndChar

StartChar: uni3238
Encoding: 50 12856 50
Width: 250
Flags: W
HStem: 45 44<64.3953 130.696> 200 45<104.058 148.807>
VStem: 52 45<250.482 398.02> 181 44<296.484 399.82>
LayerCount: 2
Fore
SplineSet
102 354 m 0
 102 345 101 334 100 322 c 0
 99 310 97 298 97 289 c 0
 97 266 113 245 132 245 c 0
 142 245 153 259 159 280 c 0
 165 325 172 362 181 383 c 1
 181 385 l 2
 181 392 193 400 203 400 c 0
 215 400 225 390 225 377 c 0
 225 371 221 356 217 341 c 0
 214 329 211 317 210 311 c 0
 209 298 207 286 203 271 c 2
 200 247 l 2
 185 115 176 81 151 63 c 0
 133 51 119 45 103 45 c 0
 83 45 68 51 35 73 c 0
 28 79 25 85 25 92 c 0
 25 104 35 115 47 115 c 0
 56 115 65 108 75 102 c 0
 85 96 94 89 103 89 c 0
 109 89 116 93 125 99 c 0
 133 104 142 143 149 203 c 1
 146 201 140 200 132 200 c 0
 88 200 52 240 52 289 c 0
 52 298 53 310 54 322 c 0
 55 334 57 345 57 354 c 2
 57 380 l 2
 57 391 69 400 82 400 c 0
 97 400 102 389 102 354 c 0
EndSplineSet
Validated: 1
EndChar

StartChar: uni3239
Encoding: 51 12857 51
Width: 248
Flags: W
HStem: 202 45<93 184 185 194 195 222.793> 353 47<48.0469 143>
VStem: 39 56<245.092 264.601>
LayerCount: 2
Fore
SplineSet
39 233 m 0
 39 257 70 284 99 309 c 0
 117 325 134 340 143 353 c 1
 141 353 l 2
 128 353 91 347 51 339 c 1
 48 339 l 1
 48 338 48 338 47 338 c 0
 35 338 25 349 25 361 c 0
 25 372 33 381 43 383 c 0
 103 395 136 400 166 400 c 0
 187 400 199 391 199 375 c 0
 199 333 133 280 106 258 c 0
 100 253 95 249 95 248 c 0
 95 247 95 247 93 245 c 1
 95 245 l 1
 107 246 125 246 137 246 c 0
 149 246 167 246 179 247 c 2
 212 247 223 241 223 224 c 0
 223 212 213 201 201 201 c 2
 195 201 l 2
 194 202 l 0
 192 202 l 2
 186 202 l 2
 185 202 l 0
 184 203 l 2
 179 203 l 2
 172 203 154 203 137 202 c 0
 120 201 102 200 95 200 c 0
 55 200 39 209 39 233 c 0
EndSplineSet
Validated: 1
EndChar

StartChar: uni3240
Encoding: 52 12864 52
Width: 244
Flags: W
HStem: 3 44<111.555 148 149 157>
VStem: 25 43<-99.8443 -73.9993> 174 45<-99.7182 -1.79706>
LayerCount: 2
Fore
SplineSet
148 2 m 1
 139 2 l 2
 111 1 107 1 96 -2 c 1
 91 -20 86 -35 68 -85 c 0
 65 -94 56 -100 47 -100 c 0
 35 -100 25 -89 25 -77 c 0
 25 -73 26 -74 26 -74 c 0
 26 -74 27 -74 27 -70 c 0
 39 -39 48 -8 57 22 c 0
 74 79 90 135 125 199 c 0
 130 207 137 211 145 211 c 0
 154 211 162 206 165 197 c 0
 191 124 197 90 217 -67 c 0
 217 -69 218 -70 218 -72 c 0
 218 -74 218 -76 219 -77 c 0
 219 -89 208 -100 196 -100 c 0
 185 -100 175 -92 174 -81 c 0
 174 -76 174 -72 172 -61 c 0
 170 -50 167 -31 163 3 c 1
 149 3 l 1
 148 2 l 1
157 47 m 1
 154 74 150 97 141 129 c 1
 130 104 122 82 111 45 c 1
 123 47 125 47 146 47 c 2
 157 47 l 1
EndSplineSet
Validated: 1
EndChar

StartChar: uni3241
Encoding: 53 12865 53
Width: 225
Flags: W
HStem: -100 49<71 102.868> 166 45<95 100 101 151.125>
VStem: 104 45<-44.6798 -6.47398> 153 47<133.015 164.885>
LayerCount: 2
Fore
SplineSet
25 -72 m 0
 25 -68 31 -5 38 57 c 0
 45 119 52 181 52 185 c 0
 54 204 69 211 105 211 c 0
 164 211 200 195 200 168 c 0
 200 134 176 104 103 45 c 1
 102 44 l 2
 102 43 102 43 101 43 c 0
 100 43 100 43 99 42 c 1
 116 25 116 25 138 -4 c 0
 147 -15 149 -20 149 -31 c 0
 149 -63 100 -100 56 -100 c 0
 37 -100 25 -89 25 -72 c 0
105 167 m 2
 101 167 l 1
 100 166 l 1
 95 166 l 1
 95 162 89 100 87 89 c 1
 104 98 147 144 153 160 c 0
 153 161 153 161 152 161 c 0
 137 165 122 167 105 167 c 2
77 1 m 1
 77 0 l 2
 77 0 77 -2 77 -3 c 0
 76 -7 74 -19 71 -51 c 1
 77 -51 99 -39 104 -33 c 1
 104 -31 l 2
 102 -25 96 -18 77 1 c 1
EndSplineSet
Validated: 1
EndChar

StartChar: uni3242
Encoding: 54 12866 54
Width: 240
Flags: W
HStem: -100 45<70.1871 166.445> -80 48<119.332 205.906>
VStem: 25 44<-53.459 15.7412>
LayerCount: 2
Fore
SplineSet
69 -35 m 1024x20
100 -55 m 0xa0
 110 -55 126 -50 142 -44 c 0
 158 -38 174 -32 184 -32 c 0x60
 196 -32 207 -43 207 -55 c 0xa0
 207 -66 192 -80 181 -80 c 1x60
 144 -95 123 -100 100 -100 c 0
 59 -100 25 -70 25 -34 c 0
 25 12 100 130 177 205 c 0
 181 209 187 211 193 211 c 0
 205 211 215 201 215 189 c 0
 215 183 212 177 208 173 c 0
 145 112 69 -1 69 -34 c 1
 73 -49 82 -55 100 -55 c 0xa0
EndSplineSet
Validated: 1
EndChar

StartChar: uni3243
Encoding: 55 12867 55
Width: 222
Flags: W
HStem: 167 44<86.1572 142.245>
VStem: 152 45<49.8656 155.84>
LayerCount: 2
Fore
SplineSet
197 122 m 0
 197 36 105 -100 47 -100 c 0
 35 -100 25 -90 25 -77 c 0
 25 1 36 141 47 193 c 0
 49 203 58 210 69 211 c 2
 78 211 l 2
 155 211 197 179 197 122 c 0
71 -37 m 1
 113 -2 152 74 152 122 c 0
 152 149 130 165 89 167 c 1
 82 124 77 66 71 -37 c 1
EndSplineSet
Validated: 1
EndChar

StartChar: uni3244
Encoding: 56 12868 56
Width: 236
Flags: W
HStem: -100 45<69 173.952> -87 44<169.094 196.803> -87 41<70.2282 168.859 169.094 196.803> 12 45<77 192.718> 167 44<91.2805 210.78>
VStem: 25 44<-55 10.7842>
LayerCount: 2
Fore
SplineSet
188 166 m 2x9c
 181 166 l 2
 158 167 156 167 149 167 c 2
 115 167 l 2
 114 167 113 167 113 167 c 0
 112 167 112 167 105 166 c 0
 102 166 97 166 91 165 c 1
 82 106 79 85 77 57 c 1
 170 57 l 2
 182 57 193 47 193 35 c 0
 193 23 182 12 170 12 c 2
 73 12 l 1
 70 -14 69 -36 69 -55 c 1x9c
 95 -54 134 -49 156 -46 c 0x3c
 162 -45 166 -44 169 -44 c 0
 171 -44 173 -44 174 -43 c 2
 186 -43 197 -53 197 -65 c 0
 197 -76 186 -87 176 -87 c 0x5c
 81 -100 81 -100 59 -100 c 2
 47 -100 l 2
 35 -100 25 -90 25 -78 c 2
 25 -63 l 2
 25 -4 34 84 49 185 c 0
 49 206 68 211 147 211 c 2
 175 211 l 2
 199 211 211 204 211 188 c 0
 211 176 200 166 188 166 c 2x9c
EndSplineSet
Validated: 1
EndChar

StartChar: uni3245
Encoding: 57 12869 57
Width: 215
Flags: W
HStem: 38 45<70 180.743> 167 44<76.4444 189.821>
VStem: 25 47<-99.5039 38.9832 82 163.244>
LayerCount: 2
Fore
SplineSet
70 82 m 1
 80 82 l 2
 81 82 83 82 84 82 c 0
 85 82 86 83 87 83 c 2
 159 83 l 2
 171 83 181 73 181 61 c 0
 181 49 172 39 160 38 c 2
 143 38 l 2
 121 38 117 38 109 39 c 2
 100 39 l 2
 83 39 81 39 69 37 c 1
 69 25 l 2
 69 -15 70 -46 72 -75 c 2
 72 -77 l 2
 72 -89 61 -100 49 -100 c 0
 37 -100 28 -91 27 -79 c 0
 25 -53 25 -40 25 25 c 0
 25 85 27 135 32 184 c 0
 33 194 41 203 51 204 c 2
 53 204 l 1
 83 209 114 211 141 211 c 0
 179 211 190 206 190 188 c 0
 190 176 180 165 168 165 c 2
 165 165 l 2
 163 165 162 166 160 166 c 0
 158 166 156 166 154 166 c 0
 150 167 148 167 141 167 c 0
 125 167 106 166 75 162 c 1
 75 161 l 2
 75 160 75 160 75 160 c 0
 74 150 73 149 72 126 c 0
 72 125 72 124 72 123 c 0
 72 117 72 110 71 100 c 0
 71 95 70 89 70 83 c 2
 70 82 l 1
EndSplineSet
Validated: 1
EndChar

StartChar: uni3246
Encoding: 58 12870 58
Width: 229
Flags: W
HStem: -87 44<69 138.231> -10 57<93.18 141.569> 169 42<158.669 203.87>
VStem: 25 44<-41.9046 69.4029> 141 44<-99.8371 -75 -33.3979 -1.69224>
LayerCount: 2
Fore
SplineSet
189 -17 m 0
 189 -29 189 -33 188 -40 c 0
 187 -46 186 -55 185 -73 c 2
 185 -77 l 2
 185 -89 175 -100 163 -100 c 0
 150 -100 141 -91 141 -77 c 2
 141 -75 l 1
 81 -87 81 -87 69 -87 c 0
 36 -87 25 -73 25 -33 c 0
 25 82 75 164 172 209 c 0
 176 211 178 211 181 211 c 0
 193 211 204 201 204 189 c 0
 204 180 199 172 191 169 c 0
 108 130 69 66 69 -33 c 2
 69 -43 l 1
 76 -43 142 -30 144 -28 c 0
 144 -16 144 -16 143 -1 c 1
 112 -10 112 -10 111 -10 c 0
 99 -10 88 1 88 13 c 0
 88 27 91 29 124 40 c 0
 136 45 146 47 155 47 c 0
 169 47 180 39 183 27 c 0
 187 11 189 -4 189 -17 c 0
EndSplineSet
Validated: 1
EndChar

StartChar: uni3247
Encoding: 59 12871 59
Width: 216
Flags: W
VStem: 27 44<-99.5039 15.5928 59 210.547> 133 45<-99.6849 11.0343> 146 45<76.2607 210.685>
LayerCount: 2
Fore
SplineSet
139 22 m 1xc0
 138 22 l 0
 134 22 115 19 71 13 c 1
 71 5 l 2
 70 -45 69 -63 69 -71 c 0
 69 -73 69 -75 69 -76 c 2
 69 -78 l 2
 69 -90 59 -100 47 -100 c 0
 35 -100 25 -89 25 -77 c 0
 25 -66 26 -5 27 56 c 0
 28 117 29 178 29 189 c 0
 29 201 39 211 51 211 c 0
 63 211 74 201 74 189 c 0
 74 172 74 165 72 59 c 1
 93 62 139 67 140 67 c 0
 140 67 140 70 140 75 c 0
 141 101 146 185 146 190 c 0
 147 202 156 211 168 211 c 0
 180 211 191 201 191 189 c 2
 191 187 l 2xa0
 189 164 178 -69 178 -79 c 0
 177 -91 168 -100 156 -100 c 0
 144 -100 133 -89 133 -77 c 2
 133 -74 l 2
 134 -67 138 -8 139 12 c 2
 139 22 l 1xc0
EndSplineSet
Validated: 1
EndChar

StartChar: uni3248
Encoding: 60 12872 60
Width: 316
Flags: W
HStem: -100 43<73 91.9163 226.471 290.718> 167 44<169.277 236 237 262.885>
VStem: 123 46<-0.0181351 161>
LayerCount: 2
Fore
SplineSet
268 -100 m 0
 261 -100 241 -92 218 -82 c 0
 193 -71 164 -59 141 -53 c 1
 128 -82 96 -106 71 -106 c 0
 47 -106 25 -82 25 -57 c 0
 25 -28 63 -2 105 -2 c 2
 107 -2 l 1
 113 40 119 100 123 160 c 0
 123 161 123 161 102 161 c 4
 92 160 71 158 67 157 c 0
 55 157 44 167 44 179 c 0
 44 190 52 200 63 201 c 0
 125 208 160 211 203 211 c 2
 241 211 l 2
 253 211 263 201 263 189 c 0
 263 177 253 166 241 166 c 2
 238 166 l 2
 237 166 l 0
 236 167 l 2
 203 167 l 2
 175 167 175 167 169 166 c 1
 169 163 l 1
 164 95 157 29 151 -9 c 1
 178 -17 205 -28 230 -39 c 0
 246 -46 261 -52 275 -57 c 0
 285 -61 291 -69 291 -77 c 0
 291 -89 280 -100 268 -100 c 0
71 -59 m 1
 73 -61 l 1
 73 -60 73 -60 74 -60 c 0
 81 -57 86 -54 93 -47 c 1
 85 -48 78 -52 71 -59 c 1
EndSplineSet
Validated: 1
EndChar

StartChar: uni3249
Encoding: 61 12873 61
Width: 208
Flags: W
HStem: -100 45<47.3772 111.865>
VStem: 135 44<-24.7158 210.652>
LayerCount: 2
Fore
SplineSet
136 145 m 0
 136 199 140 211 160 211 c 0
 172 211 183 201 183 189 c 2
 183 188 l 2
 182 181 182 181 179 125 c 2
 179 112 l 2
 176 19 169 -19 145 -75 c 0
 138 -91 124 -100 105 -100 c 0
 92 -100 70 -94 41 -84 c 0
 32 -81 25 -72 25 -62 c 0
 25 -50 35 -40 47 -40 c 0
 55 -40 66 -44 76 -48 c 0
 86 -52 97 -55 105 -55 c 1
 125 -2 131 30 134 111 c 2
 134 113 l 2
 134 114 134 114 135 115 c 1
 135 127 l 2
 135 130 136 133 136 136 c 0
 136 139 136 142 136 145 c 0
EndSplineSet
Validated: 1
EndChar

StartChar: uni324A
Encoding: 62 12874 62
Width: 250
Flags: W
VStem: 25 44<-99.8381 4.92524> 39 45<89 210.685>
LayerCount: 2
Fore
SplineSet
95 46 m 1x40
 104 37 120 23 138 9 c 0
 176 -21 221 -57 221 -74 c 0
 221 -86 211 -96 199 -96 c 0
 190 -96 187 -93 174 -80 c 0
 160 -66 134 -42 77 3 c 0
 76 4 l 0
 74 5 l 1
 69 -79 l 2
 68 -91 59 -100 47 -100 c 0
 35 -100 25 -89 25 -77 c 0x80
 26 -75 33 63 39 190 c 0
 40 202 49 211 61 211 c 0
 73 211 84 201 84 189 c 0
 84 187 81 133 79 89 c 1
 145 128 165 164 177 186 c 0
 185 200 190 209 202 209 c 0
 214 209 225 198 225 186 c 0
 225 154 162 87 95 46 c 1x40
EndSplineSet
Validated: 1
EndChar

StartChar: uni324B
Encoding: 63 12875 63
Width: 205
Flags: W
HStem: -100 45<72.6089 179.547>
VStem: 51 44<24.1973 210.856>
LayerCount: 2
Fore
SplineSet
95 189 m 0
 95 186 93 169 90 145 c 0
 84 96 75 14 71 -55 c 0
 72 -56 73 -55 75 -55 c 0
 76 -55 77 -55 79 -55 c 0
 94 -55 110 -55 149 -54 c 2
 158 -54 l 2
 170 -54 180 -64 180 -76 c 0
 180 -88 171 -98 159 -99 c 0
 111 -100 111 -100 97 -100 c 0
 44 -100 25 -92 25 -69 c 2
 25 -68 l 1
 30 20 36 83 51 192 c 0
 52 203 62 211 73 211 c 0
 85 211 95 201 95 189 c 0
EndSplineSet
Validated: 1
EndChar

StartChar: uni324C
Encoding: 64 12876 64
Width: 324
Flags: W
VStem: 25 42<-99.8706 -69.2307> 255 44<-98.0938 64>
LayerCount: 2
Fore
SplineSet
27 -69 m 0
 28 -69 27 -69 27 -68 c 0
 59 -5 79 68 94 122 c 0
 105 161 113 192 121 202 c 0
 126 208 133 211 140 211 c 0
 162 211 167 198 169 135 c 0
 171 70 175 39 183 24 c 1
 203 37 216 95 227 141 c 0
 234 169 239 193 245 200 c 0
 250 207 257 211 266 211 c 0
 293 211 299 182 299 55 c 0
 299 6 297 -45 293 -80 c 0
 292 -91 282 -100 271 -100 c 0
 259 -100 249 -89 249 -77 c 2
 249 -75 l 1
 253 -36 255 8 255 55 c 2
 255 64 l 1
 235 5 212 -22 181 -22 c 0
 150 -22 133 7 127 70 c 1
 107 3 88 -47 67 -88 c 0
 64 -95 56 -100 47 -100 c 0
 35 -100 25 -89 25 -77 c 0
 25 -74 25 -74 27 -69 c 0
EndSplineSet
Validated: 1
EndChar

StartChar: uni324D
Encoding: 65 12877 65
Width: 270
Flags: W
VStem: 25 44<-99.8034 62.6487> 201 44<-2.75501 210.885>
LayerCount: 2
Fore
SplineSet
25 -77 m 2
 25 -73 l 1
 36 -17 43 56 49 111 c 0
 53 151 56 182 59 191 c 0
 63 203 74 211 87 211 c 0
 116 211 129 183 161 51 c 0
 162 50 162 50 162 48 c 0
 163 45 163 45 182 -31 c 1
 192 15 201 117 201 189 c 0
 201 201 211 211 223 211 c 0
 235 211 245 201 245 189 c 0
 245 123 240 45 232 -3 c 0
 221 -73 207 -100 182 -100 c 0
 155 -100 146 -78 109 75 c 0
 109 75 108 76 108 77 c 0
 106 86 98 123 95 131 c 1
 84 11 79 -30 69 -82 c 0
 67 -92 57 -100 47 -100 c 0
 35 -100 25 -89 25 -77 c 2
EndSplineSet
Validated: 1
EndChar

StartChar: uni324E
Encoding: 66 12878 66
Width: 332
Flags: W
HStem: -100 45<84.7487 200.863> 167 44<125.161 251.498>
VStem: 25 44<-38.7946 107.312> 262 45<29.2962 155.917>
LayerCount: 2
Fore
SplineSet
197 167 m 2
 114 166 69 114 69 19 c 0
 69 9 69 3 72 -18 c 0
 75 -37 110 -55 144 -55 c 0
 173 -55 198 -43 213 -23 c 0
 244 20 262 70 262 110 c 0
 262 150 242 167 198 167 c 2
 197 167 l 2
25 19 m 0
 25 140 88 210 196 211 c 2
 198 211 l 2
 267 211 307 174 307 110 c 0
 307 64 284 0 249 -49 c 0
 226 -81 188 -100 143 -100 c 0
 82 -100 32 -67 27 -23 c 0
 25 -6 25 2 25 19 c 0
EndSplineSet
Validated: 1
EndChar

StartChar: uni324F
Encoding: 67 12879 67
Width: 232
Flags: W
HStem: 47 44<88 148.195> 167 44<99.5149 129 129 162.718>
VStem: 25 44<-99.8381 44.1147> 163 44<105.375 164.748>
LayerCount: 2
Fore
SplineSet
131 211 m 0
 174 211 207 184 207 149 c 0
 207 128 193 92 178 75 c 0
 159 56 134 47 102 47 c 2
 89 47 l 2
 87 47 86 47 85 47 c 0
 84 47 83 46 82 47 c 1
 78 21 78 14 69 -79 c 0
 68 -91 58 -100 47 -100 c 0
 35 -100 25 -89 25 -77 c 0
 25 -45 52 157 59 180 c 0
 65 196 100 211 131 211 c 0
88 91 m 1
 102 91 l 2
 137 91 154 106 163 147 c 1
 163 149 l 2
 163 158 147 167 131 167 c 2
 129 167 l 1
 129 166 129 166 128 166 c 0
 120 164 110 162 99 158 c 1
 96 149 89 101 88 92 c 0
 88 91 88 91 88 91 c 1
EndSplineSet
Validated: 1
EndChar

StartChar: uni3250
Encoding: 68 12880 68
Width: 265
Flags: W
HStem: -76 45<69.8085 119.573> 167 44<132.572 168.441>
VStem: 169 44<47.4426 166.531>
LayerCount: 2
Fore
SplineSet
25 -20 m 0
 25 89 100 211 167 211 c 0
 198 211 213 189 213 144 c 0
 213 103 200 49 179 0 c 1
 240 -69 240 -69 240 -78 c 0
 240 -90 230 -100 218 -100 c 0
 210 -100 205 -98 201 -93 c 0
 194 -84 185 -75 177 -66 c 0
 167 -55 159 -45 155 -40 c 1
 136 -63 112 -76 89 -76 c 0
 56 -76 25 -48 25 -20 c 0
121 55 m 0
 130 55 135 51 146 37 c 1
 160 76 169 118 169 144 c 0
 169 149 169 149 166 167 c 1
 125 166 76 72 69 -19 c 1
 70 -19 l 1
 75 -27 82 -31 89 -31 c 0
 100 -31 113 -22 125 -5 c 1
 99 25 99 26 99 32 c 0
 99 44 109 55 121 55 c 0
EndSplineSet
Validated: 1
EndChar

StartChar: uni3251
Encoding: 69 12881 69
Width: 243
Flags: W
HStem: 167 44<87.4582 162.366>
VStem: 28 45<-99.0759 -3 31 163.625> 173 45<83.7503 154.616>
LayerCount: 2
Fore
SplineSet
73 31 m 1
 78 36 88 42 100 48 c 0
 130 64 173 86 173 124 c 0
 173 150 143 167 99 167 c 0
 91 167 91 167 89 166 c 0
 78 115 74 85 73 31 c 1
123 8 m 1
 129 0 138 -9 148 -19 c 0
 168 -40 191 -63 191 -78 c 0
 191 -90 181 -100 169 -100 c 0
 162 -100 155 -97 151 -90 c 0
 134 -65 114 -45 97 -28 c 0
 88 -19 80 -11 73 -3 c 1
 73 -15 70 -75 69 -79 c 0
 68 -91 59 -100 47 -100 c 0
 35 -100 25 -89 25 -77 c 0
 25 -76 26 -76 26 -75 c 0
 26 -74 26 -74 26 -73 c 0
 26 -72 26 -71 26 -67 c 0
 26 -63 27 -55 27 -39 c 0
 27 -32 28 -25 28 -18 c 0
 28 -11 28 -5 28 2 c 2
 28 7 l 2
 29 83 33 118 47 182 c 0
 51 201 69 211 99 211 c 0
 167 211 218 174 218 124 c 0
 218 79 187 41 123 8 c 1
EndSplineSet
Validated: 1
EndChar

StartChar: uni3252
Encoding: 70 12882 70
Width: 264
Flags: W
HStem: -100 44<67.4286 144.364> 163 48<154.117 210 210 238.617>
VStem: 75 45<67.5749 133.571> 157 44<-46.6373 14.1752>
LayerCount: 2
Fore
SplineSet
116 -100 m 0
 76 -100 25 -74 25 -53 c 0
 25 -41 35 -31 47 -31 c 0
 59 -31 71 -38 82 -44 c 0
 93 -50 104 -56 116 -56 c 0
 135 -56 148 -40 157 -6 c 0
 157 -3 148 6 131 20 c 0
 90 53 75 75 75 105 c 0
 75 152 113 182 209 211 c 0
 210 212 210 211 210 211 c 0
 211 211 l 2
 216 211 l 2
 228 211 239 201 239 189 c 0
 239 174 236 172 207 163 c 0
 175 154 161 149 148 141 c 0
 131 130 121 119 120 110 c 2
 120 105 l 2
 120 82 140 66 160 50 c 0
 180 34 201 17 201 -6 c 0
 201 -53 159 -100 116 -100 c 0
EndSplineSet
Validated: 1
EndChar

StartChar: uni3253
Encoding: 71 12883 71
Width: 281
Flags: W
HStem: 158 44<25.1441 108.231> 167 44<47.1848 111 155 255.232>
VStem: 86 47<-99.6348 97.2344> 108 47<-29.5698 165>
LayerCount: 2
Fore
SplineSet
86 -82 m 0x60
 86 -79 87 -79 88 -78 c 0
 89 -77 89 -77 89 -74 c 0
 99 -5 105 63 108 149 c 2
 108 152 l 2
 108 157 108 158 110 158 c 0
 111 158 111 158 111 165 c 1
 51 158 51 158 47 158 c 0
 35 158 25 168 25 180 c 0
 25 191 33 201 44 202 c 0x90
 93 209 125 211 165 211 c 0
 212 211 221 211 235 209 c 0
 246 208 256 198 256 186 c 0
 256 174 245 164 233 164 c 2
 232 164 l 2
 213 166 191 167 165 167 c 2
 155 167 l 1x50
 155 108 144 -12 133 -81 c 0
 131 -92 122 -100 111 -100 c 0
 96 -100 86 -93 86 -82 c 0x60
EndSplineSet
Validated: 1
EndChar

StartChar: uni3254
Encoding: 72 12884 72
Width: 226
Flags: W
HStem: -100 43<78.8867 112.265>
VStem: 25 44<-53.6511 188.28> 36 45<32.6625 210.686> 157 44<29.988 210.885>
LayerCount: 2
Fore
SplineSet
81 189 m 0xb0
 81 176 78 143 75 110 c 0
 72 77 69 44 69 31 c 0
 69 -12 73 -38 82 -51 c 0
 84 -54 87 -57 88 -57 c 0
 123 -57 155 58 157 189 c 0
 157 201 167 211 179 211 c 0
 191 211 201 201 201 189 c 0
 201 19 155 -100 89 -100 c 0
 46 -100 25 -58 25 31 c 0xd0
 25 66 29 131 36 191 c 0
 37 202 47 211 58 211 c 0
 70 211 81 201 81 189 c 0xb0
EndSplineSet
Validated: 1
EndChar

StartChar: uni3255
Encoding: 73 12885 73
Width: 276
Flags: W
VStem: 207 44<182 210.727>
LayerCount: 2
Fore
SplineSet
249 181 m 1
 238 153 234 140 212 62 c 0
 212 61 212 60 211 59 c 2
 164 -84 156 -100 133 -100 c 0
 110 -100 102 -81 59 75 c 0
 41 139 28 183 25 189 c 1
 25 201 35 211 47 211 c 0
 65 211 68 205 90 128 c 0
 99 91 112 48 135 -24 c 1
 141 -8 150 20 161 55 c 0
 174 97 190 149 207 197 c 0
 210 205 218 211 228 211 c 0
 240 211 251 201 251 189 c 0
 251 186 251 186 250 183 c 0
 250 182 250 182 249 182 c 1
 249 181 l 1
EndSplineSet
Validated: 1
EndChar

StartChar: uni3256
Encoding: 74 12886 74
Width: 424
Flags: W
VStem: 355 44<120.463 210.743>
LayerCount: 2
Fore
SplineSet
25 184 m 1
 25 188 l 1
 24 188 25 188 25 189 c 0
 25 201 35 211 47 211 c 0
 58 211 67 203 69 193 c 0
 97 53 112 -11 125 -45 c 1
 140 -16 151 27 161 67 c 0
 171 106 179 142 190 155 c 0
 197 164 205 169 216 169 c 0
 247 169 259 141 275 31 c 0
 281 -14 283 -28 287 -43 c 1
 301 -14 319 52 333 110 c 0
 342 145 349 177 355 195 c 0
 358 204 366 211 376 211 c 0
 388 211 399 201 399 189 c 0
 399 188 399 188 379 110 c 2
 376 99 l 2
 332 -68 317 -100 284 -100 c 0
 266 -100 254 -87 245 -58 c 1
 245 -57 l 1
 239 -33 235 -3 231 26 c 0
 227 55 223 83 217 104 c 1
 211 88 206 66 200 42 c 0
 191 8 181 -29 171 -52 c 0
 158 -84 141 -100 121 -100 c 0
 90 -100 75 -60 39 121 c 0
 36 134 30 163 25 184 c 1
EndSplineSet
Validated: 1
EndChar

StartChar: uni3257
Encoding: 75 12887 75
Width: 301
Flags: W
VStem: 25 251
LayerCount: 2
Fore
SplineSet
25 -78 m 0
 25 -69 28 -66 40 -52 c 0
 53 -37 76 -10 119 50 c 1
 86 128 63 184 63 189 c 0
 63 201 74 211 86 211 c 0
 99 211 105 205 112 187 c 0
 113 184 114 181 116 176 c 0
 121 164 129 143 143 109 c 2
 150 93 l 1
 176 128 198 157 237 203 c 0
 242 208 248 211 254 211 c 0
 266 211 276 201 276 189 c 0
 276 181 272 176 258 159 c 0
 244 142 221 114 182 60 c 0
 178 55 171 45 171 45 c 0
 194 -4 211 -33 228 -56 c 0
 238 -70 239 -72 239 -78 c 0
 239 -90 229 -100 217 -100 c 0
 210 -100 204 -97 199 -91 c 0
 177 -62 161 -35 141 4 c 1
 123 -21 105 -42 63 -92 c 0
 57 -98 53 -100 47 -100 c 0
 35 -100 25 -90 25 -78 c 0
EndSplineSet
Validated: 1
EndChar

StartChar: uni3258
Encoding: 76 12888 76
Width: 225
Flags: W
VStem: 25 43<149.073 210.845> 84 44<-99.8207 -67 -66 75.2538> 129 71<148.119 184.781>
LayerCount: 2
Fore
SplineSet
83 -66 m 1
 83 -56 84 -38 85 -21 c 0
 86 -4 87 14 87 24 c 0
 87 47 87 48 86 55 c 1
 69 66 56 92 39 149 c 1
 38 149 l 2
 37 150 25 187 25 189 c 0
 25 201 35 211 47 211 c 0
 57 211 65 205 68 197 c 0
 71 190 74 180 78 169 c 0
 87 144 98 112 107 96 c 1
 115 108 122 124 129 142 c 0
 138 163 147 185 159 202 c 0
 163 208 169 211 177 211 c 0
 189 211 200 201 200 189 c 0
 200 180 200 180 197 177 c 0
 188 168 179 145 169 122 c 0
 157 94 145 65 131 55 c 1
 132 47 132 47 132 21 c 0
 132 2 131 -10 130 -22 c 0
 129 -34 128 -47 128 -66 c 2
 128 -77 l 2
 128 -89 118 -100 106 -100 c 0
 94 -100 84 -90 84 -78 c 2
 84 -67 l 1
 83 -66 l 1
EndSplineSet
Validated: 1
EndChar

StartChar: uni3259
Encoding: 77 12889 77
Width: 268
Flags: W
HStem: -100 45<72.8197 217.796> 162 49<40.0553 196.165>
VStem: 25 218
LayerCount: 2
Fore
SplineSet
92 -55 m 0
 109 -55 132 -51 154 -47 c 0
 176 -43 199 -39 216 -39 c 0
 228 -39 238 -50 238 -62 c 0
 238 -72 231 -80 222 -83 c 0
 188 -93 135 -100 92 -100 c 0
 43 -100 25 -90 25 -62 c 0
 25 -28 63 8 104 46 c 0
 144 83 186 121 197 162 c 1
 184 165 164 167 145 167 c 0
 129 167 124 167 63 162 c 1
 61 162 l 2
 49 162 39 173 39 185 c 0
 39 196 48 206 59 207 c 0
 108 210 121 211 145 211 c 0
 214 211 243 199 243 170 c 2
 243 166 l 1
 238 122 215 89 142 20 c 0
 108 -11 77 -44 72 -54 c 1
 83 -55 84 -55 92 -55 c 0
EndSplineSet
Validated: 1
EndChar

StartChar: uni3260
Encoding: 78 12896 78
Width: 229
Flags: W
HStem: -100 45<69 103.893> 55 45<101.618 146.682>
VStem: 25 44<-54.9556 21.1359> 145 44<-15.8329 54.5625> 151 53<-97.9131 -55.0801>
LayerCount: 2
Fore
SplineSet
189 1 m 0xf0
 189 -25 192 -31 196 -38 c 0
 200 -45 204 -51 204 -77 c 0
 204 -89 193 -100 181 -100 c 0
 165 -100 160 -92 151 -55 c 1xe8
 123 -83 92 -100 69 -100 c 0
 42 -100 25 -79 25 -46 c 0
 25 36 77 100 142 100 c 0
 176 100 195 90 195 72 c 0
 195 60 194 48 192 36 c 0
 190 24 189 13 189 1 c 0xf0
70 -55 m 0
 84 -55 125 -21 145 7 c 1xf0
 145 42 145 47 147 55 c 1
 142 55 l 2
 103 55 69 8 69 -46 c 0
 69 -54 69 -54 70 -55 c 0
EndSplineSet
Validated: 1
EndChar

StartChar: uni3261
Encoding: 79 12897 79
Width: 209
Flags: W
HStem: 55 45<95.3818 138.721>
VStem: 32 45<83.8983 210.685> 139 45<-14.1565 54.7392>
LayerCount: 2
Fore
SplineSet
139 37 m 0
 139 50 136 55 129 55 c 0
 97 55 74 13 70 -55 c 1
 80 -54 85 -50 106 -28 c 2
 119 -15 l 2
 131 -2 139 19 139 37 c 0
47 -99 m 2
 34 -99 25 -89 25 -75 c 2
 25 -51 l 2
 25 14 28 130 32 190 c 0
 33 202 42 211 54 211 c 0
 66 211 77 201 77 189 c 2
 77 183 l 1
 72 85 72 85 72 81 c 1
 85 92 108 100 129 100 c 0
 164 100 184 77 184 37 c 0
 184 0 172 -26 139 -59 c 0
 110 -90 93 -100 68 -100 c 2
 47 -99 l 2
EndSplineSet
Validated: 1
EndChar

StartChar: uni3262
Encoding: 80 12898 80
Width: 198
Flags: W
HStem: -100 45<70.3312 172.429> 57 43<114.41 168.718>
VStem: 25 44<-54.4809 10.9185>
LayerCount: 2
Fore
SplineSet
128 -55 m 2
 131 -55 132 -55 138 -54 c 2
 140 -53 145 -53 151 -53 c 0
 163 -53 173 -63 173 -75 c 0
 173 -92 159 -100 128 -100 c 0
 61 -100 26 -85 25 -55 c 2
 25 -46 l 2
 25 20 91 100 146 100 c 0
 158 100 169 89 169 77 c 0
 169 68 163 60 153 57 c 0
 101 40 69 1 69 -46 c 2
 69 -47 l 2
 69 -53 79 -55 109 -55 c 2
 128 -55 l 2
EndSplineSet
Validated: 1
EndChar

StartChar: uni3263
Encoding: 81 12899 81
Width: 224
Flags: W
HStem: -100 45<69.5237 127.133> 55 45<84.7792 144.73>
VStem: 25 44<-54.8878 42.8482> 146 53<-40.651 42.9531 91 207.572> 155 44<92.1323 210.838>
LayerCount: 2
Fore
SplineSet
193 38 m 0xf0
 193 33 194 6 195 -20 c 0
 196 -46 197 -72 197 -77 c 0
 197 -89 186 -100 174 -100 c 0
 162 -100 152 -90 151 -78 c 1
 131 -91 101 -100 81 -100 c 0
 46 -100 25 -75 25 -33 c 0
 25 44 59 100 107 100 c 0
 118 100 128 98 146 91 c 1xf0
 147 115 150 149 155 191 c 0xe8
 156 202 166 211 177 211 c 0
 190 211 199 202 199 189 c 2
 199 185 l 1
 195 135 193 83 193 38 c 0xf0
145 36 m 2
 145 38 l 2
 146 41 146 42 145 43 c 0
 130 51 117 55 107 55 c 0
 87 55 69 13 69 -33 c 0
 69 -50 72 -55 81 -55 c 0
 87 -55 93 -53 100 -50 c 0
 107 -47 113 -44 119 -44 c 0
 140 -36 146 -29 146 -11 c 2
 146 -10 l 2
 145 6 145 13 145 36 c 2
EndSplineSet
Validated: 1
EndChar

StartChar: uni3264
Encoding: 82 12900 82
Width: 206
Flags: W
HStem: -100 45<74.4988 161.96>
VStem: 115 46<5.21072 53.752>
LayerCount: 2
Fore
SplineSet
93 -55 m 0
 105 -55 116 -50 126 -46 c 0
 136 -42 146 -37 158 -37 c 0
 170 -37 181 -47 181 -59 c 0
 181 -68 176 -75 169 -79 c 0
 142 -94 119 -100 93 -100 c 0
 52 -100 25 -72 25 -29 c 0
 25 39 66 100 111 100 c 0
 139 100 161 72 161 36 c 0
 161 -3 119 -44 74 -49 c 1
 77 -54 81 -55 93 -55 c 0
115 29 m 2
 115 30 116 31 116 32 c 0
 117 33 117 34 117 35 c 2
 117 36 l 2
 117 41 114 48 109 55 c 1
 91 48 82 33 73 -4 c 1
 92 -1 104 9 115 28 c 1
 115 29 l 2
EndSplineSet
Validated: 1
EndChar

StartChar: uni3265
Encoding: 83 12901 83
Width: 252
Flags: W
HStem: 49 45<25.4531 78.9531 129 225.406> 167 44<144.17 198.664>
VStem: 76 45<-99.5039 -16 -15 48.3999> 83 46<96 154.89>
LayerCount: 2
Fore
SplineSet
123 51 m 1xd0
 123 46 122 16 121 -14 c 0
 120 -44 119 -74 119 -79 c 0
 118 -91 109 -100 97 -100 c 0
 85 -100 74 -89 74 -77 c 0
 75 -75 75 -72 75 -56 c 0
 75 -52 76 -50 76 -46 c 0
 76 -42 76 -39 76 -35 c 2
 76 -18 l 2
 76 -16 l 0xe0
 77 -15 l 0
 78 36 78 36 79 49 c 1
 78 48 77 49 75 49 c 0
 74 49 73 49 72 49 c 2
 67 49 l 2
 61 49 58 49 54 48 c 0
 53 48 51 48 50 48 c 0
 49 48 48 47 47 47 c 0
 35 47 25 57 25 69 c 0
 25 87 36 93 71 93 c 0
 72 93 73 94 74 94 c 0
 75 94 76 94 77 94 c 2
 83 94 l 1
 93 171 122 211 169 211 c 0
 191 211 214 190 214 171 c 0
 214 159 204 148 192 148 c 0
 187 148 183 153 180 158 c 0
 177 163 174 167 169 167 c 0
 150 167 136 142 129 96 c 1
 151 97 170 98 186 99 c 0
 189 99 191 100 194 100 c 0
 197 100 200 100 203 100 c 2
 205 100 l 2
 217 100 227 89 227 77 c 0
 227 65 218 56 206 55 c 0
 183 53 140 51 123 51 c 1xd0
EndSplineSet
Validated: 1
EndChar

StartChar: uni3266
Encoding: 84 12902 84
Width: 251
Flags: W
HStem: -255 44<76.0912 121.686> -100 44<115.897 151.954>
VStem: 25 201
LayerCount: 2
Fore
SplineSet
115 -47 m 1
 128 -52 142 -56 149 -56 c 0
 151 -56 151 -56 152 -55 c 2
 153 -55 l 1
 165 -44 170 -24 179 51 c 1
 146 36 118 -7 115 -47 c 1
47 -175 m 0
 55 -175 67 -184 78 -193 c 0
 89 -202 101 -211 109 -211 c 0
 117 -211 138 -157 152 -100 c 1
 149 -100 l 2
 108 -100 70 -78 70 -54 c 0
 70 20 133 100 192 100 c 0
 208 100 226 85 226 72 c 0
 226 -5 180 -193 151 -231 c 0
 141 -246 125 -255 109 -255 c 0
 89 -255 70 -245 33 -215 c 0
 28 -211 25 -204 25 -197 c 0
 25 -185 35 -175 47 -175 c 0
EndSplineSet
Validated: 1
EndChar

StartChar: uni3267
Encoding: 85 12903 85
Width: 239
Flags: W
HStem: 54 46<119.332 165.269>
VStem: 55 45<86 210.633> 169 45<-98.316 53.4353>
LayerCount: 2
Fore
SplineSet
55 107 m 2
 55 118 l 2
 55 131 55 138 56 171 c 0
 56 175 56 178 56 181 c 0
 56 184 57 187 57 191 c 0
 58 203 67 211 79 211 c 0
 91 211 102 201 102 189 c 2
 102 188 l 2
 101 159 100 131 100 106 c 2
 100 86 l 1
 119 96 135 100 149 100 c 0
 190 100 214 65 214 6 c 0
 214 -3 210 -61 208 -76 c 2
 208 -79 l 2
 207 -91 198 -100 186 -100 c 0
 174 -100 164 -89 164 -77 c 0
 164 -70 165 -53 166 -36 c 0
 167 -19 169 -1 169 6 c 0
 169 27 165 42 156 54 c 1
 155 54 l 2
 152 55 152 55 149 55 c 0
 138 54 126 50 119 45 c 0
 110 33 101 12 90 -17 c 0
 83 -43 76 -65 68 -86 c 0
 65 -94 56 -100 47 -100 c 0
 34 -100 25 -91 25 -78 c 0
 25 -72 28 -65 32 -54 c 0
 36 -42 41 -26 47 -3 c 0
 53 31 55 56 55 107 c 2
EndSplineSet
Validated: 1
EndChar

StartChar: uni3268
Encoding: 86 12904 86
Width: 108
Flags: W
HStem: 167 44<39.1152 82.8848>
VStem: 25 44<-99.8381 72.9237> 39 44<-73.494 98.5256 167.115 210.885>
LayerCount: 2
Fore
SplineSet
56 100 m 0xc0
 68 100 79 89 79 77 c 0
 73 -11 71 -32 69 -79 c 0
 68 -91 59 -100 47 -100 c 0
 35 -100 25 -89 25 -77 c 0
 30 -2 33 60 34 75 c 0
 34 77 34 79 34 79 c 0
 35 91 44 100 56 100 c 0xc0
39 189 m 0xa0
 39 201 49 211 61 211 c 0
 73 211 83 201 83 189 c 0
 83 177 73 167 61 167 c 0
 49 167 39 177 39 189 c 0xa0
EndSplineSet
Validated: 1
EndChar

StartChar: uni3269
Encoding: 87 12905 87
Width: 198
Flags: W
HStem: -160 45<47.4219 106.604> 167 44<128.126 172.885>
VStem: 117 42<-113.187 72.9038> 128 45<167.257 210.743>
LayerCount: 2
Fore
SplineSet
47 -100 m 0xe0
 56 -100 65 -104 74 -108 c 0
 83 -112 91 -115 100 -115 c 2
 101 -115 l 1
 114 -76 117 -58 117 -23 c 2
 117 -14 l 2
 117 14 119 39 123 81 c 0
 124 92 134 100 145 100 c 0
 157 100 168 89 168 77 c 2
 168 75 l 1
 167 75 l 1
 161 30 160 3 159 -20 c 0
 158 -54 158 -78 139 -137 c 0
 134 -152 121 -160 100 -160 c 0
 83 -160 62 -154 37 -142 c 0
 30 -139 25 -131 25 -122 c 0
 25 -110 35 -100 47 -100 c 0xe0
128 189 m 0xd0
 128 201 139 211 151 211 c 0
 163 211 173 201 173 189 c 0
 173 177 163 167 151 167 c 0
 139 167 128 177 128 189 c 0xd0
EndSplineSet
Validated: 1
EndChar

StartChar: uni326A
Encoding: 88 12906 88
Width: 207
Flags: W
VStem: 28 44<-99.7182 -37 52 190.174>
LayerCount: 2
Fore
SplineSet
160 -100 m 0
 152 -100 152 -100 143 -92 c 0
 125 -76 104 -60 72 -37 c 1
 72 -58 72 -64 73 -69 c 0
 73 -74 73 -75 74 -77 c 0
 74 -89 63 -100 51 -100 c 0
 39 -100 30 -91 29 -79 c 0
 29 -73 28 -66 28 -60 c 0
 28 -54 28 -46 28 -40 c 0
 28 -21 27 0 26 18 c 0
 25 37 25 53 25 59 c 0
 25 117 27 153 33 192 c 0
 34 203 44 211 55 211 c 0
 67 211 77 201 77 189 c 2
 77 186 l 1
 72 145 69 101 69 59 c 2
 69 52 l 1
 129 89 148 100 156 100 c 0
 168 100 178 90 178 78 c 0
 178 62 163 50 117 27 c 1
 116 27 l 1
 90 13 90 13 85 9 c 1
 174 -55 182 -62 182 -78 c 0
 182 -90 172 -100 160 -100 c 0
EndSplineSet
Validated: 1
EndChar

StartChar: uni326B
Encoding: 89 12907 89
Width: 102
Flags: W
VStem: 25 44<-99.8381 189.643>
LayerCount: 2
Fore
SplineSet
55 211 m 0
 67 211 77 201 77 189 c 2
 77 187 l 2
 75 167 74 134 73 56 c 0
 73 -7 72 -36 69 -79 c 0
 68 -91 58 -100 47 -100 c 0
 35 -100 25 -89 25 -77 c 2
 25 -76 l 2
 27 -58 27 -58 29 56 c 2
 29 87 l 2
 29 136 30 162 33 191 c 0
 34 202 43 211 55 211 c 0
EndSplineSet
Validated: 1
EndChar

StartChar: uni326C
Encoding: 90 12908 90
Width: 344
Flags: W
HStem: 47 45<98.1653 151.945 224.641 271.395>
VStem: 28 46<-99.0837 -30.1406 -28 21.5305> 148 45<-66.7207 6.395> 271 44<-99.8207 45.5819>
LayerCount: 2
Fore
SplineSet
271 -71 m 2
 271 -65 271 -50 272 -36 c 0
 273 -22 274 -7 274 -1 c 0
 274 34 268 47 252 47 c 0
 231 47 203 2 193 -49 c 0
 191 -59 182 -67 171 -67 c 0
 158 -67 148 -57 148 -44 c 0
 148 -31 150 -25 152 -19 c 0
 154 -13 155 -6 155 7 c 0
 155 23 151 36 143 46 c 0
 142 46 142 46 141 47 c 0
 104 47 77 14 74 -35 c 0
 72 -86 66 -100 47 -100 c 0
 34 -100 25 -91 25 -78 c 2
 25 -76 l 2
 26 -69 26 -69 26 -68 c 0
 26 -66 26 -64 27 -63 c 0
 27 -61 28 -60 28 -58 c 0
 28 -56 28 -54 28 -52 c 0
 28 -48 28 -44 29 -38 c 0
 29 -36 30 -33 30 -30 c 2
 30 -29 l 1
 31 -28 l 1
 31 -17 l 1
 36 66 47 100 70 100 c 0
 82 100 91 91 92 79 c 1
 111 87 128 91 141 91 c 0
 164 91 176 83 189 57 c 1
 207 80 229 92 252 92 c 0
 296 92 319 60 319 -1 c 0
 319 -15 318 -26 317 -36 c 0
 316 -46 315 -57 315 -71 c 2
 315 -77 l 1
 316 -77 l 1
 316 -89 305 -100 293 -100 c 0
 281 -100 271 -90 271 -78 c 2
 271 -71 l 2
EndSplineSet
Validated: 1
EndChar

StartChar: uni326D
Encoding: 91 12909 91
Width: 224
Flags: W
HStem: 41 45<97.7947 151.904>
VStem: 25 46<-99.693 17.4236> 153 45<-99.7668 40.3788>
LayerCount: 2
Fore
SplineSet
153 -78 m 2
 153 -73 l 2
 155 -30 155 -30 155 -20 c 2
 155 -19 l 2
 155 16 152 34 145 41 c 1
 141 41 l 2
 130 41 105 31 94 23 c 0
 74 -5 72 -35 71 -58 c 0
 70 -83 69 -100 47 -100 c 0
 33 -100 25 -90 25 -75 c 0
 25 -28 38 42 55 86 c 0
 58 95 66 100 75 100 c 0
 87 100 98 89 98 77 c 1
 97 77 l 1
 97 76 l 1
 114 83 128 86 141 86 c 0
 182 86 199 55 199 -19 c 0
 199 -25 198 -30 198 -34 c 0
 198 -38 198 -43 198 -49 c 0
 198 -55 198 -60 198 -64 c 0
 198 -68 197 -73 197 -79 c 0
 196 -91 187 -100 175 -100 c 0
 162 -100 153 -91 153 -78 c 2
EndSplineSet
Validated: 1
EndChar

StartChar: uni326E
Encoding: 92 12910 92
Width: 206
Flags: W
HStem: -100 45<70.6859 115.415>
VStem: 25 45<-53.7754 22.875> 139 42<-34.2414 54.1925>
LayerCount: 2
Fore
SplineSet
80 -100 m 0
 44 -100 25 -79 25 -40 c 0
 25 32 76 96 136 100 c 1
 139 100 l 2
 165 100 181 76 181 39 c 0
 181 18 177 -7 169 -31 c 0
 157 -65 143 -81 117 -92 c 0
 103 -97 91 -100 80 -100 c 0
135 55 m 1
 101 51 69 5 69 -40 c 0
 69 -41 70 -42 70 -43 c 0
 70 -44 70 -45 70 -46 c 0
 70 -47 70 -49 70 -50 c 0
 70 -51 71 -52 71 -53 c 2
 71 -54 l 2
 72 -55 73 -55 80 -55 c 0
 91 -55 105 -50 113 -43 c 0
 114 -42 139 -13 139 28 c 0
 139 36 138 46 135 55 c 1
EndSplineSet
Validated: 1
EndChar

StartChar: uni326F
Encoding: 93 12911 93
Width: 222
Flags: W
HStem: -100 45<83.8688 134.817> 55 45<81.4404 151.633>
VStem: 31 44<-233.309 -91 -49.8166 48.6069> 153 44<-37.6094 54.4375>
LayerCount: 2
Fore
SplineSet
153 17 m 2
 153 50 149 55 126 55 c 0
 104 55 93 54 82 50 c 1
 78 20 77 8 77 1 c 0
 78 -35 90 -55 110 -55 c 0
 127 -55 152 -17 153 10 c 2
 153 17 l 2
126 100 m 0
 176 100 197 75 197 17 c 0
 197 -45 156 -100 109 -100 c 0
 99 -100 88 -97 75 -91 c 1
 75 -113 l 2
 75 -158 73 -199 69 -235 c 0
 68 -246 58 -255 47 -255 c 0
 35 -255 25 -245 25 -233 c 2
 25 -231 l 1
 29 -202 31 -162 31 -113 c 2
 31 -75 l 2
 31 -49 31 -41 33 2 c 2
 33 5 l 2
 33 32 38 69 43 78 c 0
 47 84 50 87 55 89 c 0
 76 97 98 100 126 100 c 0
EndSplineSet
Validated: 1
EndChar

StartChar: uni3270
Encoding: 94 12912 94
Width: 200
Flags: W
HStem: -100 45<69.6242 103.214>
VStem: 25 44<-54.6324 24.9673> 117 46<-254.743 -89.2917>
LayerCount: 2
Fore
SplineSet
175 71 m 0
 175 24 171 -21 168 -66 c 0
 165 -111 162 -157 162 -204 c 0
 163 -209 163 -212 163 -233 c 0
 163 -245 152 -255 140 -255 c 0
 128 -255 117 -245 117 -233 c 2
 117 -192 l 2
 117 -177 117 -167 118 -118 c 0
 118 -113 118 -108 118 -103 c 0
 118 -98 119 -93 119 -88 c 1
 109 -96 97 -100 85 -100 c 0
 48 -100 25 -79 25 -43 c 0
 25 -25 28 -14 43 31 c 0
 54 68 95 100 131 100 c 0
 155 100 175 87 175 71 c 0
69 -43 m 0
 69 -53 72 -55 85 -55 c 0
 100 -55 120 -5 129 55 c 1
 112 53 90 34 85 17 c 0
 80 5 69 -36 69 -43 c 0
EndSplineSet
Validated: 1
EndChar

StartChar: uni3271
Encoding: 95 12913 95
Width: 197
Flags: W
HStem: -100 200<33.5222 70.48>
VStem: 25 46<-99.7421 -76.623 -75.0094 3.9955> 33 44<-42.0683 9.12354 52.2315 99.8381>
LayerCount: 2
Fore
SplineSet
76 52 m 1xa0
 106 80 136 100 149 100 c 0
 161 100 172 89 172 77 c 0
 172 65 168 64 158 58 c 0
 147 52 127 40 93 6 c 0
 75 -6 71 -18 71 -57 c 2
 71 -70 l 2
 71 -71 71 -72 71 -73 c 0
 71 -75 70 -76 71 -77 c 0
 71 -90 62 -100 49 -100 c 0
 30 -100 25 -88 25 -43 c 0xc0
 25 -23 26 -11 28 4 c 0
 30 21 32 41 33 79 c 0
 34 91 43 100 55 100 c 0
 67 100 77 89 77 77 c 0
 77 58 77 57 76 52 c 1xa0
EndSplineSet
Validated: 1
EndChar

StartChar: uni3272
Encoding: 96 12914 96
Width: 210
Flags: W
HStem: -100 43<37.1544 121.805> 55 45<104.378 172.418>
VStem: 59 45<24.148 54.2265> 124 45<-50.4657 -14.0006>
LayerCount: 2
Fore
SplineSet
47 -50 m 0
 57 -50 59 -52 62 -54 c 0
 65 -56 67 -57 77 -57 c 0
 99 -57 124 -43 124 -31 c 0
 124 -24 122 -21 110 -16 c 0
 82 -5 59 21 59 41 c 0
 59 76 87 100 128 100 c 0
 162 100 185 88 185 71 c 0
 185 59 175 48 163 48 c 0
 154 48 150 50 146 52 c 0
 142 54 137 55 128 55 c 0
 112 55 104 50 104 41 c 0
 104 33 109 29 121 25 c 0
 148 16 169 -9 169 -31 c 0
 169 -70 132 -100 85 -100 c 0
 46 -100 25 -90 25 -72 c 0
 25 -60 35 -50 47 -50 c 0
EndSplineSet
Validated: 1
EndChar

StartChar: uni3273
Encoding: 97 12915 97
Width: 224
Flags: W
HStem: -21 20G<156 170> 54 46<26.9668 47.7907 48 85 133 198.547>
VStem: 79 45<-51.2116 54> 89 44<100 210.839> 139 48<-51.454 -1.57101>
LayerCount: 2
Fore
SplineSet
79 -24 m 2xe8
 79 -16 82 27 85 54 c 1
 84 54 83 54 82 54 c 0
 81 54 79 53 78 53 c 0
 71 53 61 52 57 51 c 2
 56 50 56 50 55 50 c 2
 53 50 l 1
 53 49 l 1
 48 49 l 1
 48 48 48 49 47 49 c 0
 35 49 25 59 25 71 c 0
 25 82 32 91 43 93 c 2
 44 94 44 94 45 94 c 2
 47 94 l 2
 48 94 52 94 57 95 c 0
 66 96 78 97 86 99 c 2
 88 99 l 1
 89 125 90 143 90 158 c 0
 90 175 90 178 89 186 c 2
 89 189 l 2
 89 201 99 211 111 211 c 0
 123 211 132 202 133 191 c 2
 133 187 l 2
 134 169 135 162 135 160 c 0
 135 159 135 159 135 159 c 2
 135 158 l 2
 135 144 135 131 133 100 c 1xd8
 137 100 140 100 144 100 c 0
 148 100 152 99 156 99 c 0
 160 99 164 98 167 98 c 0
 170 98 174 98 178 98 c 0
 190 97 199 88 199 76 c 0
 199 64 189 53 177 53 c 2
 176 53 l 2
 172 53 168 54 164 54 c 0
 160 54 156 54 152 54 c 0
 148 54 144 54 140 54 c 0
 136 54 133 55 129 55 c 1
 125 15 124 -1 124 -31 c 0
 124 -44 124 -47 125 -53 c 1
 132 -46 136 -36 139 -27 c 0
 144 -13 148 -1 164 -1 c 0
 176 -1 187 -11 187 -23 c 0
 187 -58 149 -100 117 -100 c 0
 91 -100 79 -78 79 -31 c 2
 79 -24 l 2xe8
EndSplineSet
Validated: 1
EndChar

StartChar: uni3274
Encoding: 98 12916 98
Width: 234
Flags: W
HStem: -100 45<70.583 109.191>
VStem: 26 43<-54.8224 99.7258> 163 45<-99.7182 -45 21.2337 99.7601>
LayerCount: 2
Fore
SplineSet
72 56 m 0
 72 43 71 32 70 22 c 0
 69 12 69 2 69 -11 c 0
 69 -46 72 -55 83 -55 c 0
 101 -48 133 -15 157 21 c 1
 158 21 l 1
 162 26 163 30 163 39 c 2
 163 78 l 2
 163 91 172 100 185 100 c 0
 202 100 209 87 209 57 c 0
 209 40 209 37 208 35 c 2
 208 -77 l 2
 208 -89 197 -100 185 -100 c 0
 173 -100 163 -89 163 -77 c 2
 163 -45 l 1
 127 -84 104 -100 83 -100 c 0
 58 -100 38 -85 29 -61 c 0
 26 -51 25 -41 25 -21 c 2
 25 -11 l 2
 25 -5 26 1 26 6 c 0
 26 11 26 16 26 22 c 0
 26 28 26 34 26 39 c 0
 26 44 27 50 27 56 c 0
 27 71 27 71 28 74 c 2
 28 79 l 2
 28 91 37 100 49 100 c 0
 64 100 72 85 72 56 c 0
EndSplineSet
Validated: 1
EndChar

StartChar: uni3275
Encoding: 99 12917 99
Width: 226
Flags: W
HStem: -100 200
VStem: 25 176
LayerCount: 2
Fore
SplineSet
25 77 m 2
 25 89 35 100 47 100 c 0
 57 100 65 94 68 86 c 0
 69 83 74 68 81 49 c 0
 91 20 105 -17 111 -33 c 1
 111 -30 147 60 159 87 c 0
 162 94 170 100 179 100 c 0
 191 100 201 89 201 77 c 0
 201 71 201 71 199 68 c 0
 186 42 174 11 164 -17 c 0
 153 -48 143 -76 133 -88 c 0
 126 -96 119 -100 110 -100 c 0
 88 -100 79 -85 51 -1 c 2
 25 77 l 2
EndSplineSet
Validated: 1
EndChar

StartChar: uni3276
Encoding: 100 12918 100
Width: 360
Flags: W
HStem: -100 200<67 69.1638 245 313>
VStem: 25 56<-21.5782 95.256> 291 44<-6.10703 99.8735>
LayerCount: 2
Fore
SplineSet
25 75 m 2
 25 77 l 2
 25 89 35 100 47 100 c 0
 66 100 70 91 81 21 c 0
 90 -29 92 -39 97 -49 c 1
 153 38 168 53 199 53 c 0
 228 53 240 32 244 -23 c 0
 245 -36 245 -40 248 -55 c 1
 254 -52 261 -41 267 -24 c 0
 270 -15 270 -15 291 83 c 0
 293 93 302 100 313 100 c 0
 325 100 335 89 335 77 c 0
 335 60 309 -40 301 -56 c 0
 287 -85 268 -100 245 -100 c 0
 215 -100 203 -81 199 -24 c 0
 198 -19 198 -16 198 -10 c 0
 197 4 197 4 196 5 c 2
 195 6 195 6 195 7 c 1
 181 0 169 -22 156 -43 c 0
 139 -71 121 -100 98 -100 c 0
 67 -100 52 -72 37 15 c 1
 37 17 l 1
 33 46 25 74 25 75 c 2
EndSplineSet
Validated: 1
EndChar

StartChar: uni3277
Encoding: 101 12919 101
Width: 216
Flags: W
HStem: -100 200<38 60 156 175>
VStem: 27 55<40.4496 96.7456>
LayerCount: 2
Fore
SplineSet
29 -63 m 0
 33 -59 56 -29 75 -3 c 1
 36 56 27 70 27 77 c 0
 27 89 38 100 50 100 c 0
 62 100 67 96 82 69 c 0
 82 68 94 49 103 36 c 1
 141 85 156 100 169 100 c 0
 181 100 191 90 191 78 c 0
 191 69 189 64 185 61 c 0
 169 47 142 16 129 -3 c 1
 143 -22 156 -37 180 -63 c 0
 183 -67 185 -72 185 -78 c 0
 185 -90 175 -100 163 -100 c 0
 156 -100 151 -98 147 -93 c 0
 124 -67 118 -60 103 -41 c 1
 64 -96 60 -100 47 -100 c 0
 35 -100 25 -90 25 -78 c 0
 25 -70 26 -66 29 -63 c 0
EndSplineSet
Validated: 1
EndChar

StartChar: uni3278
Encoding: 102 12920 102
Width: 250
Flags: W
HStem: -255 44<64.3953 130.696> -100 45<104.058 148.807>
VStem: 52 45<-49.5183 98.0199> 181 44<-3.51562 99.8202>
LayerCount: 2
Fore
SplineSet
102 54 m 0
 102 45 101 34 100 22 c 0
 99 10 97 -2 97 -11 c 0
 97 -34 113 -55 132 -55 c 0
 142 -55 153 -41 159 -20 c 0
 165 25 172 62 181 83 c 1
 181 85 l 2
 181 92 193 100 203 100 c 0
 215 100 225 90 225 77 c 0
 225 71 221 56 217 41 c 0
 214 29 211 17 210 11 c 0
 209 -2 207 -14 203 -29 c 2
 200 -53 l 2
 185 -185 176 -219 151 -237 c 0
 133 -249 119 -255 103 -255 c 0
 83 -255 68 -249 35 -227 c 0
 28 -221 25 -215 25 -208 c 0
 25 -196 35 -185 47 -185 c 0
 56 -185 65 -192 75 -198 c 0
 85 -204 94 -211 103 -211 c 0
 109 -211 116 -207 125 -201 c 0
 133 -196 142 -157 149 -97 c 1
 146 -99 140 -100 132 -100 c 0
 88 -100 52 -60 52 -11 c 0
 52 -2 53 10 54 22 c 0
 55 34 57 45 57 54 c 2
 57 80 l 2
 57 91 69 100 82 100 c 0
 97 100 102 89 102 54 c 0
EndSplineSet
Validated: 1
EndChar

StartChar: uni3279
Encoding: 103 12921 103
Width: 248
Flags: W
HStem: -98 45<93 184 185 194 195 222.793> 53 47<48.0469 143>
VStem: 39 56<-54.9077 -35.3986>
LayerCount: 2
Fore
SplineSet
39 -67 m 0
 39 -43 70 -16 99 9 c 0
 117 25 134 40 143 53 c 1
 141 53 l 2
 128 53 91 47 51 39 c 1
 48 39 l 1
 48 38 48 38 47 38 c 0
 35 38 25 49 25 61 c 0
 25 72 33 81 43 83 c 0
 103 95 136 100 166 100 c 0
 187 100 199 91 199 75 c 0
 199 33 133 -20 106 -42 c 0
 100 -47 95 -51 95 -52 c 0
 95 -53 95 -53 93 -55 c 1
 95 -55 l 1
 107 -54 125 -54 137 -54 c 0
 149 -54 167 -54 179 -53 c 2
 212 -53 223 -59 223 -76 c 0
 223 -88 213 -99 201 -99 c 2
 195 -99 l 2
 194 -98 l 0
 192 -98 l 2
 186 -98 l 2
 185 -98 l 0
 184 -97 l 2
 179 -97 l 2
 172 -97 154 -97 137 -98 c 0
 120 -99 102 -100 95 -100 c 0
 55 -100 39 -91 39 -67 c 0
EndSplineSet
Validated: 1
EndChar
